<svg width="28" height="20" viewBox="0 0 28 20" fill="none" xmlns="http://www.w3.org/2000/svg">
<rect width="28" height="20" rx="2" fill="white"/>
<mask id="mask0_18_1478" style="mask-type:alpha" maskUnits="userSpaceOnUse" x="0" y="0" width="28" height="20">
<rect width="28" height="20" rx="2" fill="white"/>
</mask>
<g mask="url(#mask0_18_1478)">
<rect width="28" height="20" fill="#19BFBF"/>
<path fill-rule="evenodd" clip-rule="evenodd" d="M17.0976 17.7641L16.0556 16.7221C16.019 16.6856 15.9914 16.6409 15.9751 16.5919L15.4092 14.8943C15.3639 14.7582 15.2366 14.6665 15.0932 14.6665C14.8765 14.6665 14.7175 14.8701 14.7701 15.0804L15.2875 17.1501C15.3159 17.2637 15.2826 17.3838 15.1998 17.4666L14.9023 17.7641C14.7722 17.8943 14.5611 17.8943 14.4309 17.7641L14.0976 17.4308C14.0351 17.3683 14 17.2835 14 17.1951V16.0785C14 16.0268 13.9879 15.9757 13.9648 15.9295L13.4254 14.8508C13.369 14.7378 13.2535 14.6665 13.1273 14.6665H11.412C11.3602 14.6665 11.3092 14.6786 11.2629 14.7017L10.1235 15.2714C10.0444 15.311 9.98425 15.3803 9.9563 15.4642L9.37695 17.2022C9.349 17.2861 9.28887 17.3554 9.2098 17.3949L8.14903 17.9253C8.05519 17.9722 7.94473 17.9722 7.85089 17.9253L6.85089 17.4253C6.73796 17.3688 6.66663 17.2534 6.66663 17.1272V14.9998C6.66663 14.8157 6.81586 14.6665 6.99996 14.6665H8.33329C8.51739 14.6665 8.66663 14.5173 8.66663 14.3332V13.3873C8.66663 13.3514 8.6724 13.3158 8.68373 13.2819L9.25732 11.5611C9.30269 11.425 9.43007 11.3332 9.57355 11.3332H10.5879C10.6397 11.3332 10.6907 11.3211 10.737 11.298L11.9296 10.7017C11.9759 10.6786 12.0269 10.6665 12.0786 10.6665H13C13.1841 10.6665 13.3333 10.5173 13.3333 10.3332V10.1379C13.3333 10.0495 13.3684 9.96472 13.4309 9.90221L13.6729 9.66019C13.8338 9.49931 14.105 9.54332 14.2068 9.74682L14.5745 10.4822C14.631 10.5952 14.7464 10.6665 14.8726 10.6665H16.4264C16.5698 10.6665 16.6972 10.5747 16.7426 10.4386L17.2573 8.89443C17.3027 8.75831 17.4301 8.6665 17.5735 8.6665H18.3333C18.5174 8.6665 18.6666 8.51727 18.6666 8.33317C18.6666 8.14908 18.5174 7.99984 18.3333 7.99984H17.6666C17.4825 7.99984 17.3333 7.8506 17.3333 7.6665V6.74519C17.3333 6.69344 17.3453 6.64241 17.3685 6.59612L17.8925 5.54806C17.9567 5.41973 17.9315 5.26474 17.8301 5.16329L17.569 4.90221C17.4388 4.77203 17.2278 4.77203 17.0976 4.90221L16.0976 5.90221C16.0351 5.96472 16 6.0495 16 6.13791V7.27908C16 7.31491 15.9942 7.3505 15.9829 7.38449L15.4093 9.10525C15.3639 9.24136 15.2365 9.33317 15.093 9.33317H14.8047C14.7163 9.33317 14.6315 9.29805 14.569 9.23554L14.096 8.76259C14.0345 8.70107 14 8.61763 14 8.53062C14 8.28676 13.7433 8.12815 13.5252 8.23721L12.8815 8.55906C12.7532 8.62322 12.5982 8.59807 12.4967 8.49662L12.0976 8.09747C12.0351 8.03496 12 7.95017 12 7.86177V6.80458C12 6.71617 12.0351 6.63138 12.0976 6.56887L13.3333 5.33317L15.2777 3.38881C15.3142 3.35222 15.3589 3.32465 15.4079 3.30829L17.282 2.68361C17.316 2.67228 17.3516 2.6665 17.3874 2.6665H18.4606C18.5869 2.6665 18.7023 2.73784 18.7588 2.85077L19.2981 3.92946C19.3212 3.97574 19.3333 4.02678 19.3333 4.07853V5.86177C19.3333 5.95017 19.3684 6.03496 19.4309 6.09747L19.8543 6.52083C19.9436 6.61011 19.9747 6.74217 19.9348 6.86194L19.4138 8.42497C19.3663 8.56757 19.4201 8.72435 19.5451 8.80773L21.3333 9.99984L22.3289 10.4976C22.5082 10.5873 22.5684 10.8139 22.4572 10.9807L21.3893 12.5825C21.3528 12.6373 21.3333 12.7016 21.3333 12.7674V14.4263C21.3333 14.5697 21.2415 14.6971 21.1054 14.7425L19.4643 15.2895C19.3804 15.3175 19.3111 15.3776 19.2715 15.4567L18.6908 16.6181C18.6748 16.6502 18.6537 16.6794 18.6284 16.7048L17.569 17.7641C17.4388 17.8943 17.2278 17.8943 17.0976 17.7641ZM11.3333 17.3332C11.7015 17.3332 12 17.0347 12 16.6665C12 16.2983 11.7015 15.9998 11.3333 15.9998C10.9651 15.9998 10.6666 16.2983 10.6666 16.6665C10.6666 17.0347 10.9651 17.3332 11.3333 17.3332ZM9.33329 8.6665C9.33329 9.03469 9.03482 9.33317 8.66663 9.33317C8.29844 9.33317 7.99996 9.03469 7.99996 8.6665C7.99996 8.29831 8.29844 7.99984 8.66663 7.99984C9.03482 7.99984 9.33329 8.29831 9.33329 8.6665Z" fill="white"/>
<path fill-rule="evenodd" clip-rule="evenodd" d="M9.96485 8.73689C9.98799 8.6906 10 8.63956 10 8.58781V8.07853C10 8.02678 9.98799 7.97574 9.96485 7.92946L9.57458 7.14891C9.46376 6.92727 9.62492 6.6665 9.87272 6.6665H10.3334C10.5175 6.6665 10.6667 6.81574 10.6667 6.99984V8.58781C10.6667 8.63956 10.6788 8.6906 10.7019 8.73689L11.0922 9.51743C11.203 9.73907 11.0418 9.99984 10.794 9.99984H9.87272C9.62492 9.99984 9.46376 9.73907 9.57458 9.51743L9.96485 8.73689Z" fill="white"/>
</g>
</svg>
