<svg width="28" height="20" viewBox="0 0 28 20" fill="none" xmlns="http://www.w3.org/2000/svg">
<rect width="28" height="20" rx="2" fill="white"/>
<mask id="mask0_18_1487" style="mask-type:alpha" maskUnits="userSpaceOnUse" x="0" y="0" width="28" height="20">
<rect width="28" height="20" rx="2" fill="white"/>
</mask>
<g mask="url(#mask0_18_1487)">
<rect width="28" height="20" fill="#F1361D"/>
<path fill-rule="evenodd" clip-rule="evenodd" d="M9.91052 2.76859L10.8751 2.80977L11.1062 3.74718L11.4882 2.83033L12.4543 2.85389L11.7258 2.24607L12.0918 1.32323L11.2595 1.86443L10.5196 1.27051L10.7337 2.21281L9.91052 2.76859ZM11.7497 5.43798L12.6757 5.71132L12.6731 6.6768L13.2656 5.87962L14.1972 6.13623L13.6375 5.37021L14.2158 4.56333L13.2773 4.88707L12.7032 4.13179L12.6829 5.09789L11.7497 5.43798ZM13.3093 9.41994L12.5367 9.99901L12.8218 9.04752L12.0593 8.45392L13.008 8.44494L13.3093 7.49901L13.6106 8.44494L14.5593 8.45392L13.7968 9.04752L14.0818 9.99901L13.3093 9.41994ZM10.1204 12.1426L11.0536 11.8951L11.5529 12.7214L11.6451 11.7324L12.5744 11.4677L11.6982 11.1039L11.7732 10.114L11.1395 10.8782L10.2565 10.5311L10.7411 11.3672L10.1204 12.1426Z" fill="#FFDC42"/>
<path fill-rule="evenodd" clip-rule="evenodd" d="M6.66663 8.2265L4.31549 9.90257L5.18298 7.14857L2.8624 5.43044L5.74968 5.40444L6.66663 2.6665L7.58357 5.40444L10.4709 5.43044L8.15027 7.14857L9.01777 9.90257L6.66663 8.2265Z" fill="#FFDC42"/>
</g>
</svg>
