<svg width="28" height="20" viewBox="0 0 28 20" fill="none" xmlns="http://www.w3.org/2000/svg">
<rect width="28" height="20" rx="2" fill="white"/>
<mask id="mask0_18_1746" style="mask-type:alpha" maskUnits="userSpaceOnUse" x="0" y="0" width="28" height="20">
<rect width="28" height="20" rx="2" fill="white"/>
</mask>
<g mask="url(#mask0_18_1746)">
<rect width="28" height="20" fill="url(#paint0_linear_18_1746)"/>
<path fill-rule="evenodd" clip-rule="evenodd" d="M13.4443 3.33317C13.3722 3.33317 13.302 3.35656 13.2443 3.39984L10.7203 5.29278C10.6848 5.31944 10.6443 5.33872 10.6012 5.3495L8.03533 5.99096C8.01173 5.99686 7.98886 6.00532 7.9671 6.0162L5.43254 7.28348C5.36803 7.31573 5.31573 7.36804 5.28347 7.43255L4.08634 9.82682C4.03284 9.93381 4.04078 10.0613 4.10713 10.1608L5.27718 11.9159C5.31368 11.9706 5.33316 12.035 5.33316 12.1008V13.8618C5.33316 13.9502 5.36828 14.035 5.43079 14.0975L6.49661 15.1633C6.59807 15.2647 6.75306 15.2899 6.88139 15.2257L10.5961 13.3684C10.6424 13.3452 10.6934 13.3332 10.7452 13.3332H13.2125C13.2905 13.3332 13.366 13.3605 13.4259 13.4104L17.2405 16.5892C17.3004 16.6392 17.3759 16.6665 17.4538 16.6665H19.8214C19.9329 16.6665 20.037 16.6108 20.0988 16.5181L22.6105 12.7505C22.647 12.6957 22.6665 12.6314 22.6665 12.5656V10.1008C22.6665 10.035 22.647 9.97062 22.6105 9.91586L19.9998 5.99984L18.0969 2.82834C18.0367 2.72794 17.9282 2.6665 17.8111 2.6665H17.3925C17.1246 2.6665 16.9904 2.99044 17.1799 3.1799C17.2714 3.27143 17.2941 3.41127 17.2362 3.52705L16.7586 4.48224C16.7022 4.59517 16.5867 4.6665 16.4605 4.6665H14.8725C14.7463 4.6665 14.6308 4.59517 14.5744 4.48224L14.092 3.51743C14.0355 3.4045 13.9201 3.33317 13.7938 3.33317H13.4443ZM19.3332 17.3331H17.9999L18.4308 17.7641C18.561 17.8943 18.7721 17.8943 18.9022 17.7641L19.3332 17.3331Z" fill="white"/>
</g>
<defs>
<linearGradient id="paint0_linear_18_1746" x1="0" y1="0" x2="0" y2="20" gradientUnits="userSpaceOnUse">
<stop stop-color="#19BFBF"/>
<stop offset="1" stop-color="#10ACAC"/>
</linearGradient>
</defs>
</svg>
