<svg width="28" height="20" viewBox="0 0 28 20" fill="none" xmlns="http://www.w3.org/2000/svg">
<rect width="28" height="20" rx="2" fill="white"/>
<mask id="mask0_18_1048" style="mask-type:alpha" maskUnits="userSpaceOnUse" x="0" y="0" width="28" height="20">
<rect width="28" height="20" rx="2" fill="white"/>
</mask>
<g mask="url(#mask0_18_1048)">
<rect width="28" height="20" fill="#19BFBF"/>
<path fill-rule="evenodd" clip-rule="evenodd" d="M10 16.0411C10 16.0139 10.0034 15.9867 10.01 15.9603L10.6667 13.3334L11.3098 10.7609C11.3252 10.6994 11.3227 10.6348 11.3027 10.5747L10.7104 8.79773C10.6824 8.71386 10.6223 8.64454 10.5432 8.605L9.51764 8.09221C9.40471 8.03575 9.33337 7.92033 9.33337 7.79407V5.4121C9.33337 5.36036 9.34542 5.30932 9.36856 5.26303L10 4.00008L10.5746 2.85101C10.631 2.73808 10.7465 2.66675 10.8727 2.66675H14.3334C14.5175 2.66675 14.6667 2.81599 14.6667 3.00008V3.66675C14.6667 3.85084 14.8159 4.00008 15 4.00008H15.6667C15.8508 4.00008 16 4.14932 16 4.33341V5.1274C16 5.25366 16.0714 5.36908 16.1843 5.42555L18.4824 6.57462C18.5954 6.63108 18.6667 6.7465 18.6667 6.87276V7.92139C18.6667 7.97314 18.6547 8.02418 18.6315 8.07046L18.0396 9.25424C18.0137 9.30612 17.9747 9.35034 17.9264 9.38252L16.0737 10.6176C16.0254 10.6498 15.9864 10.694 15.9605 10.7459L14.7063 13.2542C14.6804 13.3061 14.6413 13.3503 14.5931 13.3825L12.7404 14.6176C12.6921 14.6498 12.6531 14.694 12.6271 14.7459L11.4255 17.1492C11.369 17.2621 11.2536 17.3334 11.1274 17.3334H10.3334C10.1493 17.3334 10 17.1842 10 17.0001V16.0411Z" fill="white"/>
</g>
</svg>
