<svg width="28" height="20" viewBox="0 0 28 20" fill="none" xmlns="http://www.w3.org/2000/svg">
<rect x="0.25" y="0.25" width="27.5" height="19.5" rx="1.75" fill="white" stroke="#F5F5F5" stroke-width="0.5"/>
<mask id="mask0_18_2508" style="mask-type:alpha" maskUnits="userSpaceOnUse" x="0" y="0" width="28" height="20">
<rect x="0.25" y="0.25" width="27.5" height="19.5" rx="1.75" fill="white" stroke="white" stroke-width="0.5"/>
</mask>
<g mask="url(#mask0_18_2508)">
<path fill-rule="evenodd" clip-rule="evenodd" d="M20.0002 3.33366C20.3633 3.15211 20.7318 3.56956 20.5066 3.90734L20.0674 4.56612C20.023 4.63271 19.9659 4.68985 19.8993 4.73424L18.0551 5.96371C18.0186 5.98806 17.9845 6.01596 17.9535 6.047L17.8049 6.19559C17.5446 6.45594 17.5446 6.87805 17.8049 7.1384L18.1954 7.52892C18.4558 7.78927 18.4558 8.21138 18.1954 8.47173L17.6733 8.99389C17.4704 9.1968 17.1604 9.2471 16.9037 9.11877L16.5964 8.96513C16.2671 8.80048 15.8667 8.93396 15.702 9.26328L15.457 9.75334C15.3779 9.91148 15.2393 10.0317 15.0715 10.0876L13.4361 10.6328C13.3682 10.6554 13.297 10.667 13.2253 10.667H12.4122C12.1597 10.667 11.9288 10.8097 11.8159 11.0355L11.6316 11.404C11.467 11.7334 11.0665 11.8668 10.7372 11.7022L8.76359 10.7154C8.6995 10.6833 8.641 10.6412 8.59033 10.5905L7.52876 9.52892C7.40373 9.4039 7.3335 9.23433 7.3335 9.05752V8.47173C7.3335 8.21138 7.54455 8.00033 7.8049 8.00033C7.92992 8.00033 8.04983 7.95066 8.13823 7.86225L9.13823 6.86225C9.26326 6.73723 9.43283 6.66699 9.60964 6.66699H10.1863C10.4733 6.66699 10.728 6.48337 10.8188 6.21114L11.1474 5.22531C11.2537 4.90635 11.5809 4.71647 11.9106 4.78241L14.5198 5.30426C14.6166 5.32362 14.7165 5.32124 14.8123 5.2973L17.2625 4.68474C17.3097 4.67294 17.3554 4.65602 17.399 4.63426L18.6668 4.00033L20.0002 3.33366Z" fill="#E7832C"/>
<path fill-rule="evenodd" clip-rule="evenodd" d="M14.0002 16.0003C14.3684 16.0003 14.6668 15.7018 14.6668 15.3337C14.6668 14.9655 14.3684 14.667 14.0002 14.667C13.632 14.667 13.3335 14.9655 13.3335 15.3337C13.3335 15.7018 13.632 16.0003 14.0002 16.0003Z" fill="#445128"/>
<path opacity="0.75" d="M16 14.667C16 14.667 18 14.0003 18.6667 12.667" stroke="#445128" stroke-width="1.33333" stroke-linecap="round"/>
<path opacity="0.75" d="M12 14.667C12 14.667 10 14.0003 9.33333 12.667" stroke="#445128" stroke-width="1.33333" stroke-linecap="round"/>
</g>
</svg>
