<svg width="28" height="20" viewBox="0 0 28 20" fill="none" xmlns="http://www.w3.org/2000/svg">
<rect x="0.25" y="0.25" width="27.5" height="19.5" rx="1.75" fill="white" stroke="#F5F5F5" stroke-width="0.5"/>
<mask id="mask0_18_1333" style="mask-type:alpha" maskUnits="userSpaceOnUse" x="0" y="0" width="28" height="20">
<rect x="0.25" y="0.25" width="27.5" height="19.5" rx="1.75" fill="white" stroke="white" stroke-width="0.5"/>
</mask>
<g mask="url(#mask0_18_1333)">
<path fill-rule="evenodd" clip-rule="evenodd" d="M0 6.66667H28V0H0V6.66667Z" fill="#FF202D"/>
<path opacity="0.5" fill-rule="evenodd" clip-rule="evenodd" d="M10.6666 5.33341L11.3333 4.66675L12 5.33341V6.66675H10.6666V5.33341ZM13.3333 5.33341L14 4.66675L14.6666 5.33341V6.66675H13.3333V5.33341ZM16.6666 4.66675L16 5.33341V6.66675H17.3333V5.33341L16.6666 4.66675Z" fill="#1895DB"/>
<path opacity="0.5" fill-rule="evenodd" clip-rule="evenodd" d="M12.6667 4.66675L12 5.33341V6.66675H13.3333V5.33341L12.6667 4.66675ZM15.3333 4.66675L14.6667 5.33341V6.66675H16V5.33341L15.3333 4.66675Z" fill="#191F94"/>
<path fill-rule="evenodd" clip-rule="evenodd" d="M0 19.9999H28V13.3333H0V19.9999Z" fill="#2027AC"/>
<path fill-rule="evenodd" clip-rule="evenodd" d="M12 6.66675H11.3333L10.6666 8.00008H12V9.33341H10.6666V10.6667H12V12.0001H10.6666V13.3334H12V14.6667H13.3333V13.3334H14.6666V14.6667H16V13.3334H17.3333V12.0001H16V10.6667H17.3333V9.33341H16V8.00008H17.3333L16.6666 6.66675H16V8.00008H14.6666V6.66675H13.3333V8.00008H12V6.66675ZM13.3333 9.33341V8.00008H14.6666V9.33341H13.3333ZM13.3333 10.6667V9.33341H12V10.6667H13.3333ZM14.6666 10.6667H13.3333V12.0001H12V13.3334H13.3333V12.0001H14.6666V13.3334H16V12.0001H14.6666V10.6667ZM14.6666 10.6667H16V9.33341H14.6666V10.6667Z" fill="url(#paint0_linear_18_1333)"/>
</g>
<defs>
<linearGradient id="paint0_linear_18_1333" x1="10.6666" y1="6.66675" x2="10.6666" y2="14.6667" gradientUnits="userSpaceOnUse">
<stop stop-color="#FF212E"/>
<stop offset="1" stop-color="#FD0D1B"/>
</linearGradient>
</defs>
</svg>
