<svg width="28" height="20" viewBox="0 0 28 20" fill="none" xmlns="http://www.w3.org/2000/svg">
<rect width="28" height="20" rx="2" fill="#D01129"/>
<mask id="mask0_18_1871" style="mask-type:alpha" maskUnits="userSpaceOnUse" x="0" y="0" width="28" height="20">
<rect width="28" height="20" rx="2" fill="white"/>
</mask>
<g mask="url(#mask0_18_1871)">
<path fill-rule="evenodd" clip-rule="evenodd" d="M13.8883 10.0407C14.5492 10.0407 15.085 9.47817 15.085 8.78435C15.085 8.0904 14.5492 7.52783 13.8883 7.52783C13.2273 7.52783 12.6917 8.0904 12.6917 8.78435C12.6917 9.47817 13.2273 10.0407 13.8883 10.0407Z" fill="#FFF101"/>
<path fill-rule="evenodd" clip-rule="evenodd" d="M12.7974 8.27913C13.1363 8.16561 13.576 8.29772 13.8653 8.58922C14.1724 8.5305 14.4803 8.12561 14.5757 7.76512C14.4709 6.5672 13.7246 5.65968 13.4976 5.03693C13.4258 4.84011 13.0931 4.53063 12.7471 4.67472C12.4626 4.79326 12.3187 4.70102 11.3631 5.20145C10.8464 5.47203 10.4115 5.74995 10.1823 5.79839C9.95306 5.84683 9.7112 5.89001 9.52782 5.73919C9.27559 5.53173 8.99271 5.47436 8.82611 5.31803C8.62199 5.12647 8.49104 4.98188 8.35298 4.92329C8.21493 4.86457 7.98122 4.99497 8.0799 5.30531C8.30254 6.00622 8.82739 6.11974 9.05271 6.77491C9.15908 7.08463 9.3103 7.31742 9.64829 7.08268C9.98627 6.84794 10.4639 6.53613 11.2783 6.50335C11.8252 6.48121 12.3903 6.27008 12.65 5.92365C12.6475 6.22335 12.7481 6.46898 12.7216 6.85882C12.6951 7.24879 12.6993 7.73381 12.7974 8.27913Z" fill="white"/>
<path fill-rule="evenodd" clip-rule="evenodd" d="M13.4381 8.31217C13.3377 7.72244 13.5198 7.63743 13.3024 6.94617C13.1717 6.53051 13.0881 6.00954 13.086 5.76709L12.9987 5.79376C13.0008 6.0362 13.0844 6.5573 13.215 6.97296C13.4253 7.64134 13.2618 7.74287 13.3418 8.2822C13.3665 8.28746 13.4183 8.30483 13.4381 8.31217Z" fill="#FFF101"/>
<path fill-rule="evenodd" clip-rule="evenodd" d="M12.9236 8.2475C12.9243 8.17251 12.9198 8.09423 12.9087 8.02695C13.0624 7.98817 13.3256 8.13728 13.3182 8.02646C13.316 7.99135 13.3194 7.87783 13.3215 7.81765C13.3181 7.91172 12.9522 7.75294 12.8891 7.79392C12.8215 7.4508 12.9053 7.09777 12.8516 6.88236C12.9738 6.84725 13.1985 6.92383 13.171 6.82328C13.1554 6.77178 13.1255 6.64371 13.1058 6.56358C13.1251 6.6475 12.9467 6.57802 12.8863 6.62597C12.855 6.43991 12.8092 6.08689 12.8102 5.92554L12.6501 5.92383C12.6475 6.22352 12.7482 6.46915 12.7216 6.859C12.6952 7.24897 12.6994 7.73398 12.7975 8.2793C12.8325 8.26854 12.8903 8.25471 12.9236 8.2475Z" fill="#FFF101"/>
<path fill-rule="evenodd" clip-rule="evenodd" d="M12.5193 5.50796C12.2807 5.86967 11.7108 6.11934 11.1838 6.17451C10.567 6.23909 10.153 6.45463 9.84809 6.66564C9.82188 6.6161 9.77458 6.58943 9.73275 6.55677C9.28665 6.20986 9.47003 5.73977 9.63897 5.80692C9.57524 5.78099 9.53819 5.746 9.50335 5.71971C9.4444 5.67383 9.2743 5.84961 9.29563 6.12876C9.30471 6.24766 9.40164 6.42307 9.48052 6.51604C9.33652 6.48851 9.26755 6.44986 9.18296 6.34258C9.2305 6.31151 9.29201 6.29389 9.34164 6.28986C9.32475 6.24729 9.30122 6.20007 9.29563 6.12876C9.22514 6.12815 9.13916 6.15396 9.06541 6.20656C8.88844 6.02148 8.70623 5.87383 8.60056 5.65536C8.43151 5.30539 8.60347 5.08448 8.82611 5.31811C8.62199 5.12656 8.49104 4.98197 8.35298 4.92337C8.21493 4.86466 7.98122 4.99506 8.0799 5.30539C8.30254 6.00631 8.82739 6.11983 9.05271 6.775C9.15908 7.08472 9.3159 7.32607 9.64829 7.08276C9.69209 7.05071 9.70374 7.04313 9.74184 7.01475C9.84728 6.95078 10.0143 7.05818 9.99652 7.29169C10.0819 7.07726 10.0274 7.01157 9.95493 6.88301C9.90133 6.91298 9.90564 6.73744 9.87256 6.71432C10.0622 6.59053 10.2929 6.46637 10.5839 6.37793C10.5947 6.48276 10.6221 6.59408 10.7141 6.57793C10.7634 6.56643 10.8133 6.55604 10.8659 6.54686C10.774 6.56301 10.7481 6.44117 10.7375 6.33646C10.8754 6.30319 11.0262 6.27799 11.1914 6.2638C11.3818 6.24741 11.5785 6.2068 11.7633 6.1438C11.7908 6.24435 11.8477 6.41377 11.9424 6.3805C12.0264 6.35224 12.1081 6.32032 12.1847 6.28325C12.0529 6.34919 12.0011 6.16093 11.9694 6.06136C12.2102 5.95139 12.4154 5.80142 12.5381 5.62246L12.5193 5.50796Z" fill="#FFF101"/>
<path fill-rule="evenodd" clip-rule="evenodd" d="M13.573 5.68723C13.6893 5.59255 13.7892 5.54778 13.6889 5.34729C13.5248 5.01946 13.6267 5.01833 13.2675 4.80977C12.9017 4.59766 12.948 4.58102 12.4639 4.76023C12.3448 4.80427 12.3714 4.84928 12.3922 5.03057C12.4371 5.42127 12.5224 5.7359 12.6003 6.05737C12.9046 6.01565 13.3728 5.85053 13.573 5.68723Z" fill="#FFF101"/>
<path fill-rule="evenodd" clip-rule="evenodd" d="M12.4378 5.59881C12.3739 5.407 12.3911 5.43306 12.6224 5.49153C12.6982 5.23869 12.8028 5.02528 12.8614 4.82063C12.9268 4.59152 12.9473 4.5503 13.0437 4.60644C13.167 4.67813 13.3023 4.75384 13.3905 4.79935C13.5446 4.87861 13.5218 4.90638 13.4483 5.03238C13.3748 5.15837 13.1344 5.41373 12.9861 5.68015C13.1817 5.82474 13.2445 5.83783 13.1055 5.90009C12.9499 5.9697 12.6915 6.05593 12.5827 6.07636C12.5628 5.95049 12.4985 5.78071 12.4378 5.59881Z" fill="#FFF101"/>
<path fill-rule="evenodd" clip-rule="evenodd" d="M10.1412 7.40238L10.1258 7.59969L9.98725 7.46758L9.8323 7.57804L9.84255 7.3811L9.66418 7.32446L9.81657 7.20972L9.74935 7.02673L9.92818 7.08153L10.0227 6.91211L10.0944 7.09303L10.279 7.06379L10.1886 7.23639L10.3247 7.36972L10.1412 7.40238Z" fill="#FFF101"/>
<path fill-rule="evenodd" clip-rule="evenodd" d="M14.0173 10.0288C13.7541 9.77725 13.6432 9.31144 13.7391 8.90263C13.5371 8.65285 13.0492 8.57517 12.7041 8.66863C11.7684 9.36306 11.393 10.4954 10.9928 11.0132C10.8663 11.1769 10.7774 11.634 11.0694 11.8767C11.3094 12.0761 11.3053 12.253 12.1958 12.8717C12.6773 13.2062 13.1239 13.4628 13.2785 13.647C13.4333 13.8312 13.5897 14.0296 13.557 14.2717C13.512 14.6048 13.606 14.8908 13.5605 15.1202C13.5045 15.4016 13.4507 15.593 13.4714 15.7479C13.4921 15.9028 13.7164 16.05 13.9231 15.8051C14.3898 15.2522 14.2211 14.7183 14.6489 14.1858C14.851 13.9342 14.9675 13.6802 14.605 13.4903C14.2423 13.3004 13.7463 13.0219 13.312 12.298C13.0204 11.8117 12.5637 11.4033 12.148 11.3404C12.3965 11.193 12.5489 10.9786 12.8837 10.8077C13.2185 10.6368 13.6165 10.3907 14.0173 10.0288Z" fill="white"/>
<path fill-rule="evenodd" clip-rule="evenodd" d="M13.7236 9.42969C13.2875 9.81586 13.1262 9.69268 12.6648 10.236C12.3874 10.5628 11.9994 10.8993 11.8004 11.0223L11.8661 11.0884C12.0651 10.9653 12.4531 10.6288 12.7306 10.3021C13.1768 9.77672 13.3422 9.87458 13.7472 9.5322C13.7392 9.50724 13.7274 9.45134 13.7236 9.42969Z" fill="#FFF101"/>
<path fill-rule="evenodd" clip-rule="evenodd" d="M13.9275 9.93011C13.8654 9.96693 13.803 10.0102 13.753 10.0539C13.6442 9.93354 13.6356 9.61965 13.548 9.68192C13.52 9.70124 13.4247 9.75507 13.3739 9.7832C13.4534 9.73929 13.5052 10.1514 13.5706 10.1882C13.3214 10.4214 12.9883 10.5215 12.8376 10.6781C12.7475 10.5844 12.6983 10.3421 12.6291 10.4173C12.5945 10.4572 12.5038 10.5483 12.4475 10.6063C12.5071 10.5469 12.539 10.7438 12.6086 10.7746C12.4709 10.8962 12.2026 11.1143 12.069 11.1942L12.1476 11.3406C12.3961 11.1932 12.5485 10.9788 12.8833 10.8079C13.2182 10.637 13.6162 10.3909 14.0169 10.0289C13.9905 10.0024 13.9501 9.95678 13.9275 9.93011Z" fill="#FFF101"/>
<path fill-rule="evenodd" clip-rule="evenodd" d="M11.8702 11.6673C12.2879 11.7034 12.7787 12.0968 13.0877 12.5484C13.4493 13.077 13.8343 13.3456 14.1607 13.5173C14.133 13.566 14.1346 13.6223 14.1287 13.6767C14.0655 14.2558 13.5861 14.324 13.557 14.1369C13.5675 14.2078 13.5571 14.259 13.5529 14.3039C13.5445 14.3804 13.7746 14.4471 13.9941 14.2882C14.0877 14.2204 14.1838 14.0447 14.2212 13.9265C14.2704 14.0711 14.2729 14.1532 14.2269 14.2837C14.1774 14.256 14.1322 14.2088 14.104 14.1659C14.0773 14.2025 14.0502 14.2475 13.9941 14.2882C14.0288 14.3527 14.0932 14.4179 14.1734 14.4586C14.1092 14.7121 14.0786 14.9516 13.9511 15.1568C13.7471 15.4855 13.4788 15.4396 13.5603 15.1204C13.5042 15.4017 13.4505 15.5932 13.4711 15.748C13.4919 15.9029 13.7161 16.0502 13.9228 15.8053C14.3895 15.2524 14.2208 14.7184 14.6486 14.1859C14.8508 13.9343 14.9716 13.6711 14.6047 13.4904C14.5563 13.4667 14.5443 13.4599 14.5019 13.4394C14.3963 13.3755 14.4014 13.1699 14.6029 13.0694C14.3834 13.099 14.3565 13.1814 14.2867 13.3116C14.338 13.3452 14.1911 13.4291 14.1886 13.4708C13.9917 13.3603 13.774 13.2126 13.5555 12.9921C13.6367 12.93 13.7147 12.8493 13.6553 12.7738C13.6212 12.7348 13.5876 12.6944 13.5537 12.6513C13.6132 12.7269 13.5257 12.8111 13.4445 12.8733C13.3481 12.7645 13.252 12.64 13.1576 12.4969C13.0489 12.3319 12.917 12.1733 12.7727 12.0368C12.8419 11.9615 12.9532 11.8252 12.8784 11.7556C12.8131 11.6933 12.7459 11.635 12.677 11.584C12.7973 11.6708 12.6678 11.8121 12.6017 11.8907C12.3904 11.7267 12.1642 11.6151 11.9553 11.5932L11.8702 11.6673Z" fill="#FFF101"/>
<path fill-rule="evenodd" clip-rule="evenodd" d="M11.3219 10.6976C11.1856 10.6393 11.2528 10.5604 11.1376 10.7519C10.9492 11.0649 10.9128 10.9928 10.9205 11.4238C10.9283 11.8623 11.0094 11.7923 11.3994 12.1429C11.6991 11.9069 12.0569 11.5502 12.283 11.3186C12.0965 11.0628 11.5566 10.7983 11.3219 10.6976Z" fill="#FFF101"/>
<path fill-rule="evenodd" clip-rule="evenodd" d="M11.9858 11.6961C11.8595 11.8501 11.8725 11.8216 11.805 11.5819C11.5586 11.6394 11.3685 11.7058 11.1706 11.7549C10.9488 11.8098 10.9046 11.8117 10.9026 11.6961C10.9002 11.5481 10.8951 11.3873 10.8884 11.2843C10.8769 11.1047 10.911 11.1113 11.0518 11.1152C11.1925 11.119 11.4849 11.1553 11.7788 11.1569C11.8002 10.9068 11.7796 10.8432 11.9006 10.9385C12.0356 11.045 12.236 11.2369 12.3073 11.3256C12.2134 11.4066 12.1056 11.5501 11.9858 11.6961Z" fill="#FFF101"/>
<path fill-rule="evenodd" clip-rule="evenodd" d="M14.6218 12.883L14.7922 12.7982L14.7525 12.9902L14.9212 13.0759L14.7536 13.165L14.796 13.3555L14.6251 13.2743L14.5077 13.427L14.4636 13.2369L14.2766 13.2357L14.3901 13.0801L14.2736 12.9269L14.4612 12.9228L14.5032 12.7324L14.6218 12.883Z" fill="#FFF101"/>
<path fill-rule="evenodd" clip-rule="evenodd" d="M14.8502 8.04502C14.7744 8.40991 14.4455 8.74373 14.0605 8.86104C13.9554 9.16954 14.1353 9.65187 14.385 9.91915C15.4255 10.4226 16.5473 10.1978 17.1744 10.3028C17.3727 10.3359 17.7942 10.1881 17.8484 9.80147C17.8929 9.48355 18.0408 9.3989 18.1059 8.27976C18.1411 7.67462 18.1293 7.14019 18.204 6.90753C18.2787 6.67486 18.3641 6.43327 18.5801 6.34202C18.8773 6.21639 19.0661 5.98777 19.2784 5.9145C19.5383 5.82471 19.7231 5.77786 19.8404 5.68171C19.9578 5.58557 19.9672 5.30789 19.6619 5.24245C18.9724 5.09444 18.6164 5.51486 17.9633 5.39205C17.6547 5.33407 17.3869 5.35499 17.4116 5.77982C17.4363 6.20453 17.4546 6.79474 17.0746 7.55156C16.8193 8.05994 16.7109 8.67939 16.8667 9.08881C16.6209 8.93652 16.3679 8.9052 16.0596 8.68624C15.7512 8.46716 15.3491 8.2285 14.8502 8.04502Z" fill="white"/>
<path fill-rule="evenodd" clip-rule="evenodd" d="M14.5031 8.61087C15.0397 8.81429 15.0187 9.02249 15.6976 9.1705C16.1058 9.25943 16.5773 9.4439 16.7784 9.56328L16.7999 9.47044C16.599 9.35105 16.1274 9.16671 15.7192 9.07766C15.0627 8.93454 15.0608 8.73515 14.5759 8.53809C14.5593 8.55802 14.519 8.59656 14.5031 8.61087Z" fill="#FFF101"/>
<path fill-rule="evenodd" clip-rule="evenodd" d="M14.8135 8.17556C14.875 8.21361 14.9419 8.24859 15.0028 8.27232C14.9581 8.43134 14.7034 8.59624 14.7986 8.6448C14.8285 8.66058 14.9205 8.72027 14.969 8.75232C14.8932 8.70205 15.2071 8.44884 15.2048 8.37092C15.5219 8.48101 15.7709 8.73385 15.9755 8.79269C15.9434 8.92137 15.7679 9.08725 15.8646 9.11257C15.9148 9.12407 16.0354 9.16101 16.1114 9.18315C16.0325 9.15868 16.1791 9.03122 16.1696 8.95257C16.3388 9.01691 16.6528 9.15183 16.7855 9.23342L16.8669 9.08871C16.6211 8.93642 16.368 8.90511 16.0598 8.68615C15.7514 8.46706 15.3493 8.22841 14.8503 8.04492C14.8417 8.08211 14.8242 8.14168 14.8135 8.17556Z" fill="#FFF101"/>
<path fill-rule="evenodd" clip-rule="evenodd" d="M17.2749 9.17774C17.0959 8.77994 17.175 8.13688 17.3931 7.63009C17.6482 7.03694 17.6773 6.55266 17.6557 6.17003C17.7097 6.17101 17.7553 6.14129 17.8033 6.11951C18.3124 5.88746 18.6084 6.28918 18.4685 6.40918C18.5219 6.36416 18.5693 6.34814 18.6083 6.32954C18.6757 6.29872 18.6157 6.05627 18.3749 5.93615C18.2722 5.8849 18.0792 5.88538 17.9629 5.91046C18.0577 5.7934 18.124 5.75009 18.2547 5.72673C18.2567 5.78557 18.2404 5.85028 18.219 5.89737C18.2625 5.90324 18.3132 5.90545 18.3749 5.93615C18.4106 5.8723 18.4323 5.78129 18.4258 5.68783C18.6669 5.61957 18.8798 5.52771 19.1128 5.54092C19.486 5.56208 19.5823 5.82899 19.2784 5.9145C19.5383 5.82471 19.7231 5.77786 19.8404 5.68171C19.9578 5.58557 19.9671 5.30789 19.6619 5.24245C18.9724 5.09444 18.6164 5.51486 17.9632 5.39205C17.6546 5.33407 17.3771 5.35584 17.4116 5.77982C17.4161 5.83572 17.4166 5.85003 17.4209 5.89884C17.4209 6.02679 17.2488 6.1249 17.0652 5.99193C17.1993 6.17688 17.2808 6.16012 17.423 6.15853C17.4251 6.0948 17.5677 6.18642 17.6034 6.16795C17.6107 6.40233 17.5977 6.67413 17.5251 6.983C17.4333 6.94031 17.3278 6.9096 17.2951 7.00135C17.2799 7.05187 17.2635 7.10251 17.2449 7.15486C17.2775 7.06312 17.3909 7.10067 17.4825 7.14337C17.4411 7.28538 17.3864 7.43511 17.3156 7.59242C17.2338 7.7737 17.169 7.97285 17.1286 8.17248C17.0319 8.14716 16.8638 8.11413 16.8437 8.21701C16.8251 8.3074 16.8105 8.39768 16.8029 8.48587C16.8144 8.33309 16.9956 8.38006 17.0935 8.40098C17.0639 8.67499 17.0849 8.93652 17.1712 9.13762L17.2749 9.17774Z" fill="#FFF101"/>
<path fill-rule="evenodd" clip-rule="evenodd" d="M16.5587 10.0094C16.5787 10.1626 16.5657 10.2757 16.7812 10.2847C17.1336 10.2995 17.105 10.3451 17.4566 10.1227C17.8144 9.8963 17.8239 9.94101 17.9182 9.41122C17.9414 9.28095 17.8909 9.28254 17.731 9.21085C17.3864 9.05624 17.0853 9.0668 16.7812 8.97689C16.6634 9.2745 16.5242 9.74572 16.5587 10.0094Z" fill="#FFF101"/>
<path fill-rule="evenodd" clip-rule="evenodd" d="M17.2413 9.05821C17.4316 9.09588 17.4015 9.09845 17.2376 9.27973C17.4083 9.47496 17.5389 9.61232 17.6785 9.76792C17.8347 9.94211 17.8584 9.98125 17.764 10.0408C17.6432 10.117 17.5132 10.2022 17.4315 10.2598C17.289 10.3601 17.2775 10.3256 17.2102 10.1957C17.143 10.0659 17.0457 9.78395 16.9002 9.51606C16.683 9.62151 16.6408 9.67215 16.659 9.5146C16.6794 9.33845 16.7375 9.06029 16.7751 8.95117C16.8888 8.99594 17.061 9.02224 17.2413 9.05821Z" fill="#FFF101"/>
<path fill-rule="evenodd" clip-rule="evenodd" d="M16.9018 6.06808L16.7467 5.95542L16.925 5.89548L16.9112 5.69927L17.0685 5.80716L17.2046 5.67334L17.223 5.8693L17.4075 5.89964L17.2728 6.03493L17.3653 6.20545L17.1802 6.18013L17.1121 6.36264L17.0149 6.19407L16.8369 6.2512L16.9018 6.06808Z" fill="#FFF101"/>
<path fill-rule="evenodd" clip-rule="evenodd" d="M13.8602 8.59453C13.5706 8.30268 13.1333 8.17442 12.7996 8.28621L12.7902 8.28034C12.7025 7.79301 12.6828 7.32234 12.7143 6.85807C12.7265 6.67848 12.7159 6.54704 12.6808 6.31264C12.6662 6.21543 12.6642 6.20183 12.659 6.16159C12.6487 6.08086 12.6432 6.01252 12.6427 5.9451C12.3864 6.27006 11.8443 6.48788 11.2785 6.51079C10.6093 6.53773 10.1913 6.71444 9.65225 7.08885C9.35276 7.29686 9.18173 7.17307 9.04582 6.7773C8.95582 6.51561 8.84607 6.36455 8.58284 6.08649L8.56259 6.06509C8.2869 5.77375 8.16706 5.60381 8.07294 5.30752C7.98505 5.03112 8.17493 4.83913 8.35566 4.916C8.36797 4.92122 8.38032 4.92716 8.3928 4.93383C8.451 4.96496 8.51073 5.01098 8.58976 5.08312C8.61683 5.10782 8.69615 5.18358 8.75757 5.24226L8.75759 5.24227L8.7576 5.24228C8.79127 5.27445 8.81956 5.30147 8.83091 5.31212C8.83992 5.32057 8.84921 5.32874 8.85894 5.33673C8.84519 5.32766 8.83087 5.32172 8.81623 5.3187L8.7477 5.25336C8.68632 5.19473 8.60725 5.11921 8.58033 5.09464C8.50211 5.02326 8.44324 4.97789 8.38631 4.94744C8.3742 4.94096 8.36223 4.93521 8.35033 4.93016C8.18122 4.85823 8.00289 5.03854 8.08688 5.30267C8.18011 5.59619 8.29881 5.7645 8.57304 6.0543L8.59329 6.07569C8.85791 6.35523 8.96873 6.50776 9.05964 6.7721C9.19282 7.1599 9.35483 7.27716 9.64434 7.07608C10.1855 6.70026 10.6058 6.52256 11.2781 6.49549C11.8497 6.47235 12.3968 6.24897 12.6444 5.91871L12.6574 5.9235C12.6568 5.99727 12.6622 6.0708 12.6736 6.15953C12.6787 6.19961 12.6807 6.21318 12.6953 6.31025C12.7306 6.5457 12.7412 6.67813 12.7289 6.85915C12.6977 7.31947 12.717 7.78609 12.8031 8.26905L12.7953 8.27163L12.8046 8.27749L12.8031 8.26905C13.1412 8.16006 13.5793 8.29018 13.8641 8.58148C14.1517 8.52649 14.4676 8.14523 14.5686 7.7656C14.5187 7.19585 14.3347 6.68065 14.0039 6.04778C13.9528 5.95012 13.8134 5.69387 13.7457 5.56954L13.7086 5.50121C13.6032 5.30395 13.5366 5.16493 13.4909 5.03944C13.3961 4.77962 13.0419 4.55998 12.7498 4.68161C12.7101 4.69817 12.6715 4.71135 12.6291 4.7232C12.602 4.73079 12.5744 4.73761 12.5366 4.74625C12.1478 4.83528 11.9325 4.91164 11.3664 5.20808L11.3187 5.23323C11.2099 5.29081 10.948 5.43538 10.7848 5.52545L10.7848 5.52546L10.7848 5.52548L10.7847 5.5255L10.7847 5.52551L10.7846 5.52557L10.7846 5.52557C10.7153 5.56382 10.6639 5.59222 10.6496 5.5999C10.4255 5.72065 10.2852 5.78426 10.1839 5.80567C9.84889 5.87644 9.67954 5.87341 9.5234 5.74499C9.47423 5.70455 9.42168 5.66797 9.36379 5.63312C9.34885 5.62413 9.3337 5.61533 9.31807 5.60655L9.32271 5.60082L9.3207 5.59078C9.33792 5.6004 9.35453 5.61002 9.37091 5.61987C9.42938 5.65507 9.48251 5.69205 9.53226 5.73297C9.68384 5.85764 9.84995 5.86061 10.1809 5.7907C10.2804 5.76966 10.4199 5.70641 10.6429 5.58631C10.657 5.57866 10.7083 5.55038 10.7773 5.51226L10.7775 5.51219L10.7775 5.51217C10.9406 5.42213 11.203 5.27729 11.312 5.21959L11.3598 5.19441C11.927 4.89738 12.1434 4.82061 12.5334 4.73133C12.571 4.72273 12.5984 4.71596 12.6253 4.70844C12.6671 4.69674 12.7052 4.68374 12.7443 4.66742C13.0448 4.5423 13.407 4.76687 13.5044 5.03399C13.5498 5.15862 13.6161 5.29708 13.7212 5.49374L13.7582 5.56179C13.8258 5.68601 13.9654 5.94261 14.0165 6.04044C14.3482 6.67499 14.5329 7.19198 14.5827 7.76697C14.4801 8.15448 14.1604 8.54036 13.8602 8.59453ZM9.30453 5.58185L9.3207 5.59078L9.32034 5.58899C9.31507 5.5863 9.3098 5.58392 9.30453 5.58185ZM9.25239 5.57119C9.26969 5.57147 9.28711 5.57499 9.30453 5.58185C9.27796 5.56733 9.24976 5.55267 9.21866 5.5371C9.20347 5.52949 9.16977 5.513 9.13841 5.49769L9.13805 5.49458C9.12575 5.48874 9.11374 5.48382 9.10196 5.47988L9.07363 5.46602C8.98205 5.42057 8.9195 5.38449 8.86898 5.34479L8.869 5.34401C8.86568 5.34139 8.86233 5.33896 8.85894 5.33673L8.86898 5.34479L8.86866 5.35648L8.86392 5.35979C8.85978 5.35659 8.85572 5.35336 8.85173 5.3501L8.85183 5.35003C8.85473 5.35195 8.85759 5.35402 8.86042 5.35626L8.86076 5.34378L8.85183 5.35003C8.85151 5.34982 8.8512 5.34962 8.85088 5.34941C8.84063 5.34101 8.83083 5.33242 8.82133 5.32351L8.81623 5.3187C8.72263 5.29936 8.61554 5.39894 8.55471 5.55928L8.56552 5.56847L8.86392 5.35979C8.91039 5.39577 8.96666 5.42887 9.04501 5.46854C8.93098 5.46282 8.83523 5.5691 8.71289 5.8414L8.72398 5.85068L9.13386 5.51226C9.16477 5.52735 9.19762 5.54342 9.21252 5.55089C9.22635 5.55781 9.2396 5.56456 9.25239 5.57119ZM9.2997 5.59636C9.28454 5.58806 9.26885 5.57972 9.25239 5.57119C9.1225 5.56904 8.9989 5.74915 8.9248 6.06978L8.93743 6.07654L9.31807 5.60655L9.30479 5.59916L9.3052 5.59865L9.31383 5.60274L9.31147 5.59091L9.3052 5.59865L9.2997 5.59636ZM8.94642 6.04165C9.02959 5.70715 9.16656 5.544 9.2997 5.59636L9.30479 5.59916L8.94642 6.04165ZM8.94642 6.04165L8.93881 6.07339L8.92618 6.06663L8.94642 6.04165ZM9.11898 5.50499L9.13386 5.51226L9.13955 5.50756L9.13841 5.49769L9.1191 5.48826L9.10196 5.47988C9.08237 5.47332 9.06345 5.46947 9.04501 5.46854L9.06753 5.47983L9.09773 5.4946C8.96946 5.45173 8.87181 5.53223 8.7394 5.8184L8.71484 5.83867L8.72593 5.84794L8.7394 5.8184L9.11898 5.50499ZM9.12081 5.50348C9.113 5.5001 9.10531 5.49714 9.09773 5.4946L9.11322 5.50218L9.11324 5.50219L9.11329 5.50222L9.11898 5.50499L9.12081 5.50348ZM9.12081 5.50348L9.13192 5.50853L9.13042 5.49555L9.12081 5.50348ZM8.57776 5.54168L8.85173 5.3501C8.85144 5.34987 8.85116 5.34964 8.85088 5.34941C8.76324 5.29263 8.64669 5.37913 8.57776 5.54168ZM8.57776 5.54168L8.55762 5.55577L8.56842 5.56496C8.57142 5.55704 8.57454 5.54928 8.57776 5.54168Z" fill="black"/>
<path fill-rule="evenodd" clip-rule="evenodd" d="M13.4176 7.76009C13.4072 7.98614 13.4108 8.10776 13.4453 8.3104L13.4357 8.31896C13.4247 8.31488 13.4105 8.31 13.3957 8.30493C13.3736 8.29735 13.3503 8.28935 13.3346 8.28295C13.3083 8.10526 13.3061 7.99462 13.3157 7.78597L13.3176 7.74263C13.3292 7.47455 13.3088 7.295 13.2081 6.97494C13.0867 6.58866 12.9937 6.06141 12.9966 5.786L13.0933 5.7666C13.0956 6.03313 13.1884 6.5587 13.3093 6.94336C13.4106 7.26537 13.4311 7.4468 13.4195 7.71668L13.4176 7.76009ZM13.4405 8.30451L13.4309 8.31307C13.4301 8.30877 13.4294 8.30451 13.4287 8.30028C13.4329 8.30175 13.4368 8.30317 13.4405 8.30451ZM13.3431 8.27426C13.3617 8.27821 13.4005 8.29035 13.4287 8.30028C13.396 8.10387 13.3927 7.98164 13.4029 7.75933L13.4049 7.71597C13.4164 7.44786 13.3961 7.26827 13.2954 6.94813C13.174 6.56204 13.081 6.03494 13.088 5.77399L13.0059 5.79324C13.0082 6.05955 13.1009 6.58527 13.2218 6.97012C13.3231 7.29205 13.3437 7.47344 13.3321 7.7433L13.3301 7.78668C13.3206 7.99438 13.3227 8.10411 13.3431 8.27426Z" fill="black"/>
<path fill-rule="evenodd" clip-rule="evenodd" d="M11.7187 5.01025C11.6371 5.047 11.6378 5.17722 11.7037 5.38007C11.7565 5.54229 11.8499 5.74609 11.9623 5.95426L11.9756 5.94844L11.7286 5.01523L11.7187 5.01025ZM12.916 8.02528C12.9266 8.09026 12.9317 8.16807 12.931 8.2472L12.9252 8.25461L12.9002 8.26014C12.8638 8.2683 12.8225 8.27756 12.7904 8.28035C12.7027 7.79302 12.6829 7.32234 12.7144 6.85808C12.7266 6.67849 12.7161 6.54704 12.6809 6.31265C12.6663 6.21544 12.6643 6.20183 12.6592 6.16159C12.6477 6.07219 12.6422 5.99797 12.6502 5.91581L12.8175 5.92522C12.8167 6.06354 12.8533 6.38162 12.8917 6.61303C12.9124 6.60152 12.9415 6.59839 12.9872 6.59926L13.0059 6.59974C13.0486 6.60096 13.065 6.60052 13.08 6.59636C13.0961 6.59187 13.1022 6.58396 13.0995 6.56823L13.1067 6.59779C13.1014 6.60389 13.0937 6.60833 13.0836 6.61114C13.0667 6.61584 13.0498 6.61629 13.0054 6.61502L12.9868 6.61455C12.9368 6.61359 12.9083 6.61771 12.8907 6.63169L12.8791 6.62693C12.8398 6.39383 12.802 6.06686 12.81 5.93281L12.6573 5.92352C12.6566 5.99729 12.6621 6.07081 12.6735 6.15955C12.6786 6.19962 12.6806 6.2132 12.6952 6.31026C12.7305 6.54572 12.7411 6.67815 12.7288 6.85917C12.6974 7.32217 12.7171 7.79155 12.7953 8.27159C12.8249 8.26252 12.8756 8.24987 12.9163 8.2409L12.9163 8.24705L12.9221 8.23964L12.9163 8.2409C12.9167 8.16475 12.9119 8.08997 12.9069 8.01914C12.9478 8.00882 12.9973 8.01051 13.0609 8.0216C13.0822 8.02532 13.1034 8.02973 13.1333 8.03644C13.2251 8.057 13.2386 8.05966 13.2656 8.0602C13.299 8.06086 13.3125 8.05129 13.3109 8.02659C13.3092 8.00024 13.3104 7.9302 13.3132 7.8457C13.3229 7.83958 13.3282 7.83036 13.3287 7.81756L13.3143 7.817L13.3143 7.81699L13.3288 7.81756C13.3255 7.91386 13.3238 7.99708 13.3256 8.02556C13.3279 8.06102 13.3064 8.0763 13.2655 8.07549C13.2371 8.07492 13.2236 8.07229 13.1304 8.05139C13.1007 8.04474 13.0797 8.04036 13.0586 8.03669C12.9969 8.02591 12.9491 8.02427 12.916 8.02528ZM13.314 7.8195L13.3132 7.8457C13.3001 7.85391 13.279 7.85651 13.2509 7.85464C13.2154 7.85227 13.1755 7.84444 13.0991 7.82653L13.0907 7.82457C12.9601 7.79388 12.9134 7.78673 12.8929 7.80005L12.8819 7.7951C12.8774 7.77232 12.8735 7.74912 12.8702 7.72544C12.8516 7.59408 12.8505 7.48324 12.8586 7.26676C12.8669 7.04663 12.8656 6.96848 12.8496 6.87461C12.8817 6.86541 12.9206 6.86302 12.9748 6.86492C12.9874 6.86536 12.9988 6.86592 13.0191 6.86702C13.087 6.87072 13.1108 6.87096 13.1339 6.86626C13.1613 6.86068 13.1705 6.84902 13.1639 6.82522C13.1559 6.7988 13.1444 6.75374 13.1268 6.6811L13.1248 6.67264C13.1257 6.67659 13.1149 6.6318 13.1067 6.59779C13.1141 6.58908 13.1164 6.57698 13.1128 6.56142L13.0988 6.56508L13.0988 6.565L13.113 6.5613C13.1181 6.58204 13.1404 6.67455 13.139 6.66887L13.1411 6.67733C13.1586 6.74964 13.1701 6.79457 13.178 6.8208C13.1872 6.85449 13.1719 6.87414 13.1368 6.88127C13.112 6.88632 13.0879 6.88608 13.0185 6.8823C12.9983 6.8812 12.987 6.88064 12.9744 6.8802C12.9417 6.87906 12.9148 6.87951 12.8931 6.87987C12.8797 6.8801 12.8683 6.88029 12.8587 6.88005C12.8803 6.9667 12.8817 7.04547 12.8733 7.26737C12.8652 7.48293 12.8663 7.59307 12.8847 7.7232C12.8876 7.74329 12.8908 7.76302 12.8945 7.78244C12.9218 7.77207 12.9705 7.78061 13.0941 7.80965L13.1024 7.81161C13.178 7.82934 13.2175 7.83709 13.252 7.83939C13.2916 7.84203 13.3116 7.83537 13.314 7.8195ZM13.314 7.8195L13.3143 7.817L13.3141 7.817L13.314 7.8195ZM13.0988 6.56508L13.0995 6.56823L13.0987 6.56512L13.0988 6.56508ZM11.7169 5.02822L11.7145 5.01935L11.7244 5.02433C11.7218 5.0255 11.7193 5.0268 11.7169 5.02822ZM11.9453 5.89115C11.8466 5.70331 11.7652 5.52188 11.7175 5.37515C11.6562 5.18686 11.6534 5.0655 11.7169 5.02822L11.9453 5.89115ZM11.9453 5.89115C11.955 5.90963 11.9649 5.92817 11.9749 5.94674L11.9615 5.95256L11.9453 5.89115ZM11.7613 6.14807L11.7612 6.14812L11.7612 6.14813L11.7608 6.14828L11.7657 6.16478C11.8346 6.13783 11.9035 6.10617 11.9724 6.07013L11.9669 6.05393L11.9666 6.05407L11.9666 6.05406L11.9665 6.05414L11.7613 6.14807ZM11.7613 6.14807C11.8296 6.12133 11.898 6.08991 11.9665 6.05414L11.9666 6.05407L11.9721 6.07026L11.766 6.16462L11.7612 6.14813L11.7613 6.14807ZM10.582 6.3763C10.582 6.3763 10.582 6.3763 10.582 6.3763L10.5859 6.39319L10.7394 6.34573L10.736 6.32873C10.7358 6.32876 10.7357 6.3288 10.7356 6.32883L10.7356 6.3288L10.7345 6.32912C10.6829 6.34333 10.6327 6.35887 10.5834 6.37582L10.582 6.37625L10.582 6.3763ZM10.582 6.3763L10.5859 6.39314C10.6357 6.37593 10.6867 6.36018 10.739 6.3458L10.7356 6.32883C10.7352 6.32893 10.7349 6.32903 10.7345 6.32912L10.5834 6.37582C10.583 6.37598 10.5825 6.37614 10.582 6.3763Z" fill="black"/>
<path fill-rule="evenodd" clip-rule="evenodd" d="M11.183 6.1666C11.7405 6.10824 12.2879 5.84504 12.5133 5.50331L12.5264 5.50637L12.5439 5.62663C12.4248 5.80039 12.2243 5.95297 11.9763 6.05864C11.9757 6.0568 11.9864 6.0907 11.9897 6.10093C11.9953 6.1183 12.0005 6.13319 12.0058 6.14738C12.0504 6.26593 12.1032 6.31524 12.1815 6.27605L12.1815 6.27609C12.1616 6.28573 12.1411 6.29513 12.12 6.30431C12.0669 6.29774 12.0265 6.24358 11.9924 6.15299C11.9869 6.13854 11.9817 6.12343 11.976 6.10586C11.9727 6.09555 11.962 6.06158 11.9666 6.05404C12.2164 5.93996 12.4148 5.78896 12.531 5.62345L12.5152 5.52709C12.5187 5.52208 12.522 5.51705 12.5254 5.51201L12.5122 5.50895L12.5152 5.52709C12.2811 5.86567 11.7377 6.1239 11.1846 6.18181C10.6498 6.23781 10.2399 6.40335 9.8418 6.66904C9.82521 6.63768 9.80528 6.6192 9.75519 6.58256L9.755 6.58242C9.74173 6.57272 9.73575 6.56828 9.72849 6.56261C9.52687 6.40581 9.43462 6.2084 9.44804 6.02568C9.45741 5.898 9.52072 5.80273 9.59365 5.79319C9.6072 5.80079 9.62125 5.80757 9.63636 5.81372L9.63634 5.81378C9.55661 5.78208 9.47319 5.8804 9.46243 6.02686C9.44941 6.20417 9.53932 6.39657 9.73705 6.55034C9.74416 6.55589 9.75005 6.56027 9.7632 6.56989L9.76339 6.57003C9.81528 6.60798 9.83637 6.62755 9.84404 6.65896C10.2337 6.38929 10.6458 6.22286 11.183 6.1666ZM9.63931 5.79858C9.62394 5.79287 9.60859 5.79123 9.59365 5.79319C9.58047 5.7858 9.56776 5.77763 9.55497 5.76852C9.54292 5.75993 9.51101 5.73489 9.50167 5.72756C9.50015 5.72636 9.49923 5.72564 9.49909 5.72554C9.42866 5.67074 9.28503 5.89306 9.30296 6.12784C9.31108 6.23413 9.39704 6.40575 9.48603 6.51064L9.47929 6.52325C9.33204 6.49511 9.26224 6.45471 9.17919 6.33578C9.22196 6.30782 9.27875 6.28882 9.33108 6.28291L9.335 6.29249L9.33516 6.29221L9.34116 6.28193C9.33785 6.2822 9.33452 6.28252 9.33116 6.2829C9.33114 6.2829 9.33111 6.28291 9.33108 6.28291L9.32035 6.25662C9.31028 6.23157 9.30277 6.20947 9.29861 6.1883C9.29513 6.17063 9.29399 6.15362 9.29564 6.13609C9.29342 6.13608 9.29119 6.13608 9.28895 6.13612C9.218 6.13717 9.13665 6.16451 9.06035 6.21166C9.04947 6.20029 9.03821 6.18867 9.02634 6.17657C9.00592 6.15576 8.95296 6.10304 8.91587 6.06612C8.89758 6.04791 8.88314 6.03354 8.87838 6.02874C8.73565 5.88491 8.65472 5.78376 8.59414 5.65851C8.51408 5.49277 8.50457 5.3418 8.56069 5.263C8.5981 5.21048 8.65728 5.19961 8.72421 5.23093C8.73222 5.23858 8.7401 5.2461 8.7477 5.25336C8.76168 5.26672 8.77474 5.2792 8.78607 5.29C8.69727 5.21383 8.6167 5.20974 8.57223 5.27217C8.52005 5.34544 8.52918 5.49051 8.607 5.6516C8.66667 5.77496 8.74669 5.87498 8.88834 6.01771C8.89307 6.02248 8.90743 6.03678 8.92566 6.05493C8.96276 6.09186 9.01586 6.14472 9.03636 6.16561C9.04827 6.17775 9.05957 6.18941 9.06127 6.19993C9.12892 6.15169 9.20993 6.1236 9.28815 6.12685C9.27051 5.88239 9.4228 5.64725 9.50756 5.7132C9.50773 5.71333 9.50884 5.7142 9.51065 5.71562C9.52057 5.7234 9.55146 5.74764 9.56303 5.75588C9.58747 5.7733 9.61154 5.78707 9.63931 5.79858ZM9.33753 6.2976C9.28594 6.30258 9.229 6.32087 9.18853 6.33741C9.26705 6.437 9.33125 6.47679 9.46132 6.50412C9.41463 6.44542 9.3699 6.37053 9.33753 6.2976ZM8.78607 5.29C8.801 5.30424 8.8129 5.31557 8.81987 5.32213C8.80851 5.31028 8.79722 5.29957 8.78607 5.29ZM8.82097 5.32317L8.82091 5.32323C8.82057 5.32286 8.82022 5.3225 8.81987 5.32213C8.82025 5.32249 8.82062 5.32284 8.82097 5.32317ZM8.79372 5.27677C8.77003 5.25672 8.74668 5.24145 8.72421 5.23093C8.66753 5.17681 8.60392 5.11617 8.58033 5.09464C8.50211 5.02325 8.44324 4.97789 8.38631 4.94744C8.3742 4.94096 8.36223 4.93521 8.35033 4.93015C8.18122 4.85823 8.00289 5.03853 8.08688 5.30267C8.18011 5.59619 8.29881 5.7645 8.57304 6.0543L8.59329 6.07569C8.85791 6.35523 8.96873 6.50775 9.05964 6.7721C9.12126 6.95154 9.18694 7.06908 9.26997 7.12968C9.36877 7.20178 9.49037 7.18878 9.6442 7.07618C9.66241 7.06286 9.67507 7.05374 9.69635 7.03847L9.69699 7.03801C9.71128 7.02773 9.72252 7.01952 9.73827 7.00782C9.85555 6.93666 9.99922 7.05539 10.0049 7.24827C10.0004 7.26109 9.99544 7.27446 9.98988 7.28844L10.0039 7.292C10.005 7.27705 10.0053 7.26246 10.0049 7.24827C10.0436 7.13696 10.0409 7.06654 10.0051 6.98954C9.99834 6.97499 9.99039 6.95989 9.97944 6.94042C9.97924 6.94007 9.97902 6.93967 9.97877 6.93923C9.97305 6.92909 9.95436 6.89598 9.95842 6.88945C9.93991 6.8998 9.92494 6.89148 9.91441 6.86962C9.90718 6.85462 9.90242 6.83667 9.89481 6.80048L9.89296 6.79166C9.8833 6.74571 9.87711 6.72633 9.8686 6.72038L9.86879 6.70752C10.0937 6.5607 10.321 6.44958 10.5913 6.37681C10.6052 6.51332 10.6404 6.58283 10.7126 6.57016C10.747 6.56213 10.7806 6.5549 10.8142 6.54835C10.8289 6.55545 10.8458 6.55753 10.8654 6.5544C10.8156 6.56312 10.7665 6.57323 10.7152 6.58518C10.6304 6.60007 10.5914 6.52304 10.5859 6.38498C10.3294 6.46292 10.1056 6.57178 9.88431 6.71534C9.89283 6.72693 9.89851 6.74773 9.90705 6.78838L9.9089 6.79719C9.91623 6.83203 9.92082 6.84932 9.92728 6.86273C9.93454 6.87779 9.94138 6.8816 9.96114 6.87882L9.99186 6.93265C10.003 6.95244 10.0111 6.96787 10.0181 6.98285C10.0599 7.07292 10.0586 7.15516 10.0032 7.29435L9.98921 7.29079C10.005 7.08379 9.85995 6.95159 9.746 7.02069C9.73075 7.03205 9.71946 7.04031 9.7051 7.05064L9.70446 7.0511C9.68317 7.06636 9.67056 7.07545 9.6524 7.08874C9.49398 7.2047 9.36588 7.2184 9.26154 7.14225C9.17535 7.07935 9.10839 6.95949 9.04582 6.7773C8.95582 6.51561 8.84607 6.36455 8.58284 6.08648L8.56259 6.06509C8.2869 5.77375 8.16706 5.60381 8.07294 5.30752C7.98505 5.03111 8.17493 4.83913 8.35566 4.91599C8.36797 4.92121 8.38032 4.92715 8.3928 4.93382C8.451 4.96496 8.51073 5.01098 8.58976 5.08311C8.61683 5.10781 8.69616 5.18359 8.75759 5.24227C8.77067 5.25476 8.78294 5.26649 8.79372 5.27677ZM10.8646 6.53903C10.8478 6.54198 10.831 6.54508 10.8142 6.54835C10.7666 6.52536 10.7433 6.44972 10.7359 6.32871C10.8793 6.29413 11.0306 6.26964 11.1909 6.25588C11.3827 6.23936 11.5788 6.19839 11.7704 6.14139C11.8151 6.30478 11.8692 6.39788 11.9402 6.37291C12.0046 6.35126 12.0644 6.32854 12.12 6.30431C12.1386 6.30661 12.1587 6.30309 12.1807 6.29328C12.1094 6.32734 12.0311 6.35838 11.9446 6.38745C11.8607 6.41693 11.8035 6.31851 11.7655 6.15078C11.5821 6.21331 11.3849 6.25451 11.1919 6.27113C11.0323 6.28483 10.8817 6.30921 10.7447 6.33536C10.7591 6.47813 10.7932 6.55156 10.8646 6.53902L10.8646 6.53903ZM10.8646 6.53903C10.8647 6.53903 10.8647 6.53902 10.8648 6.53901L10.8672 6.55409C10.8666 6.5542 10.866 6.5543 10.8654 6.5544C10.8659 6.5543 10.8665 6.5542 10.867 6.55411L10.8646 6.53903ZM8.79372 5.27677C8.80619 5.28732 8.81875 5.2992 8.83133 5.3124L8.82133 5.32351C8.82121 5.3234 8.82109 5.32328 8.82097 5.32317L8.83091 5.31212C8.82397 5.3056 8.81069 5.29296 8.79372 5.27677ZM9.63931 5.79858C9.64008 5.79886 9.64085 5.79916 9.64162 5.79947L9.63641 5.81374C9.63639 5.81374 9.63637 5.81373 9.63636 5.81372L9.64155 5.7995C9.6408 5.79919 9.64005 5.79889 9.63931 5.79858ZM12.1807 6.29328C12.183 6.29215 12.1854 6.29103 12.1877 6.2899L12.1815 6.27609C12.1816 6.27606 12.1817 6.27603 12.1817 6.276L12.1879 6.28985C12.1855 6.29106 12.1831 6.29221 12.1807 6.29328Z" fill="black"/>
<path fill-rule="evenodd" clip-rule="evenodd" d="M13.746 8.90432C13.65 9.3136 13.7629 9.77528 14.0221 10.023L14.0219 10.0344C13.6639 10.3577 13.2858 10.6108 12.8868 10.8144C12.7695 10.8743 12.6695 10.9414 12.5603 11.029C12.5332 11.0508 12.5064 11.073 12.4717 11.1023C12.4749 11.0997 12.4058 11.1583 12.3867 11.1743C12.3014 11.2458 12.2379 11.2939 12.1694 11.3361C12.5656 11.4066 13.0163 11.7907 13.318 12.2938C13.675 12.8888 14.0302 13.1808 14.6081 13.4833C14.9293 13.6516 14.9127 13.869 14.6543 14.1906C14.4822 14.4048 14.4138 14.5778 14.314 14.9642C14.2053 15.3851 14.1296 15.5717 13.9284 15.8101C13.7443 16.0282 13.4912 15.9516 13.464 15.7488C13.4544 15.6763 13.46 15.5942 13.4799 15.48C13.4888 15.4287 13.5253 15.2532 13.5433 15.1665L13.5532 15.1185C13.5557 15.1059 13.5579 15.0936 13.5597 15.0813C13.5591 15.0981 13.5613 15.1138 13.5661 15.1285L13.5574 15.1701C13.5394 15.2571 13.5031 15.4318 13.4942 15.4827C13.4745 15.5955 13.469 15.6761 13.4784 15.7467C13.5038 15.9364 13.7416 16.0083 13.9175 15.7999C14.1168 15.5638 14.1918 15.379 14.3 14.9602C14.4003 14.5718 14.4694 14.3971 14.6432 14.1807C14.8964 13.8656 14.9121 13.6597 14.6016 13.497C14.0215 13.1933 13.6643 12.8997 13.3057 12.3019C13.0008 11.7936 12.5431 11.4078 12.1468 11.3479L12.1443 11.3336C12.219 11.2893 12.2855 11.2396 12.3777 11.1623C12.3967 11.1464 12.4657 11.0878 12.4626 11.0904C12.4973 11.061 12.5243 11.0387 12.5514 11.0169C12.6614 10.9287 12.7622 10.861 12.8804 10.8007C13.2761 10.5987 13.6511 10.3481 14.0062 10.0284L14.0123 10.0343L14.0124 10.0228L14.0062 10.0284C13.7472 9.77543 13.6354 9.31202 13.7334 8.90744C13.5442 8.67348 13.0717 8.57678 12.7081 8.67473C12.3584 8.93432 12.0672 9.26683 11.7908 9.69126C11.7148 9.80813 11.5609 10.0759 11.4111 10.3365L11.4111 10.3365C11.2555 10.6073 11.1043 10.8703 11.0494 10.9485C11.0321 10.9731 11.0151 10.9962 10.9984 11.0179C10.8313 11.2339 10.8273 11.6657 11.0738 11.8706C11.0853 11.8801 11.0964 11.8898 11.1073 11.8997C11.1406 11.9298 11.1709 11.961 11.2065 12.001L11.2485 12.0493L11.2485 12.0493L11.2485 12.0494C11.2766 12.0817 11.3103 12.1206 11.3257 12.1378C11.3791 12.1977 11.4324 12.2529 11.4962 12.3131C11.6608 12.4686 11.8836 12.6456 12.1996 12.8652C12.3604 12.9769 12.8661 13.3108 12.8635 13.3091C13.087 13.4599 13.2137 13.5581 13.2839 13.6418C13.5096 13.9105 13.5919 14.0664 13.5641 14.2726C13.5525 14.358 13.5491 14.4337 13.5524 14.5286L13.5457 14.5273L13.5381 14.5344C13.5344 14.4362 13.5378 14.3584 13.5496 14.2705C13.5767 14.0703 13.4959 13.9174 13.2729 13.6519C13.204 13.5697 13.078 13.472 12.8557 13.322C12.8583 13.3238 12.3525 12.9897 12.1916 12.8779C11.875 12.658 11.6517 12.4805 11.4865 12.3245C11.4224 12.2639 11.3688 12.2084 11.3151 12.1483C11.2996 12.1309 11.2656 12.0918 11.2376 12.0594L11.1958 12.0115C11.1606 11.9718 11.1307 11.941 11.0978 11.9112C11.0871 11.9015 11.0761 11.892 11.0647 11.8826C10.8112 11.6718 10.8153 11.2304 10.987 11.0083C11.0037 10.9867 11.0205 10.9638 11.0377 10.9394C11.0922 10.8619 11.2427 10.6 11.3979 10.3299L11.3979 10.3299L11.3979 10.3299L11.3979 10.3299L11.3979 10.3299L11.3979 10.3299L11.3979 10.3299C11.5479 10.0688 11.7024 9.8001 11.7788 9.68264C12.056 9.25682 12.3484 8.923 12.7021 8.66108C13.073 8.56064 13.5512 8.65851 13.746 8.90432ZM13.5387 14.5507L13.5381 14.5344L13.5371 14.5354C13.5375 14.5406 13.538 14.5457 13.5387 14.5507ZM13.5563 14.6058C13.5476 14.5893 13.5417 14.5709 13.5387 14.5507C13.5411 14.6042 13.5454 14.6639 13.5515 14.7345L13.5525 14.7463L13.5503 14.748C13.5516 14.7615 13.5534 14.7744 13.5559 14.7866C13.5673 14.9274 13.5697 15 13.5615 15.0676L13.5606 15.0681C13.5601 15.0725 13.5598 15.0769 13.5597 15.0813L13.5615 15.0676L13.5711 15.0621L13.5765 15.0649C13.5759 15.0703 13.5752 15.0757 13.5744 15.081L13.5741 15.0808C13.5742 15.0772 13.5745 15.0736 13.5749 15.0699L13.5645 15.0758L13.5741 15.0808C13.574 15.0819 13.574 15.0829 13.574 15.084C13.5722 15.0964 13.57 15.1089 13.5675 15.1217L13.5661 15.1285C13.5968 15.2234 13.7326 15.2711 13.8953 15.2461L13.8974 15.2317L13.5765 15.0649C13.5831 15.0078 13.5822 14.9465 13.575 14.845C13.627 14.952 13.7626 14.9861 14.049 14.9611L14.0511 14.9464L13.5668 14.7429L13.566 14.7331C13.562 14.6863 13.5587 14.6443 13.5563 14.6058ZM13.5533 14.5499C13.5541 14.5677 13.5551 14.5863 13.5563 14.6058C13.6194 14.7251 13.8298 14.7475 14.1314 14.6546L14.1307 14.6397L13.5524 14.5286L13.553 14.5442L13.5525 14.5441L13.5515 14.5342L13.543 14.5423L13.5525 14.5441L13.5533 14.5499ZM14.0972 14.6488C13.7795 14.7405 13.5764 14.6974 13.5533 14.5499L13.553 14.5442L14.0972 14.6488ZM14.0972 14.6488L14.1272 14.6399L14.1279 14.6547L14.0972 14.6488ZM13.5683 14.7601L13.5668 14.7429L13.5602 14.7402L13.5525 14.7463L13.5559 14.7866C13.5602 14.8081 13.5665 14.8275 13.575 14.845C13.5737 14.8266 13.5721 14.807 13.5704 14.7858C13.5995 14.9228 13.7151 14.971 14.0164 14.9484L14.0454 14.9606L14.0476 14.9459L14.0164 14.9484L13.5683 14.7601ZM13.5659 14.7591C13.5671 14.7684 13.5686 14.7773 13.5704 14.7858L13.5683 14.7601L13.5659 14.7591ZM13.5659 14.7591L13.5646 14.7465L13.5546 14.7544L13.5659 14.7591ZM13.8691 15.2341L13.5744 15.081C13.5743 15.082 13.5741 15.083 13.574 15.084C13.5726 15.1909 13.7017 15.2527 13.8691 15.2341ZM13.8691 15.2341L13.8908 15.2454L13.893 15.231C13.8849 15.2322 13.877 15.2332 13.8691 15.2341Z" fill="black"/>
<path fill-rule="evenodd" clip-rule="evenodd" d="M13.2617 9.73357C13.4754 9.6179 13.5642 9.5609 13.719 9.42383L13.7309 9.42827C13.733 9.44022 13.7362 9.45586 13.7395 9.47217C13.7443 9.4958 13.7493 9.52084 13.7519 9.53813C13.6137 9.65498 13.5333 9.70543 13.334 9.81329L13.293 9.83567C13.0839 9.9509 12.9426 10.0641 12.7362 10.3072C12.4783 10.6108 12.09 10.9589 11.8612 11.0939L11.7969 11.0157C12.0155 10.8805 12.4027 10.5334 12.6595 10.2309C12.8672 9.98636 13.0099 9.87202 13.2207 9.75593L13.2617 9.73357ZM13.7166 9.43107L13.7284 9.43552C13.7252 9.43833 13.7221 9.44112 13.7189 9.44387C13.7181 9.4393 13.7173 9.435 13.7166 9.43107ZM13.7189 9.44387C13.5689 9.57587 13.4786 9.63338 13.2683 9.74716L13.2274 9.76946C13.0182 9.88474 12.8769 9.99795 12.6704 10.2411C12.4126 10.5447 12.0243 10.8928 11.8056 11.0168L11.8626 11.0818C12.0812 10.9466 12.4684 10.5995 12.7253 10.297C12.9329 10.0525 13.0756 9.93819 13.2862 9.82213L13.3273 9.7997C13.5258 9.69228 13.6056 9.64226 13.7405 9.53463C13.7344 9.51581 13.7248 9.47411 13.7189 9.44387Z" fill="black"/>
<path fill-rule="evenodd" clip-rule="evenodd" d="M13.7485 10.0479C13.7967 10.0057 13.8584 9.96215 13.9239 9.9233L13.933 9.92488L13.9501 9.94495C13.9748 9.97366 14.0033 10.0068 14.0217 10.0346C13.6638 10.3579 13.2857 10.611 12.8866 10.8146C12.7693 10.8745 12.6693 10.9416 12.5601 11.0292C12.533 11.0509 12.5062 11.0732 12.4716 11.1025C12.4747 11.0999 12.4056 11.1585 12.3866 11.1745C12.2939 11.2522 12.2268 11.3023 12.1413 11.3442L12.0654 11.1874C12.1801 11.1188 12.4247 10.9262 12.5957 10.776C12.5751 10.7625 12.5577 10.7366 12.5337 10.6904L12.5202 10.6644C12.5151 10.6547 12.5111 10.6472 12.5072 10.6406C12.4863 10.6048 12.4721 10.595 12.4556 10.6089L12.4764 10.5877C12.4908 10.5913 12.5049 10.6069 12.5199 10.6326C12.5239 10.6395 12.5281 10.6471 12.5333 10.657L12.5468 10.6831C12.573 10.7335 12.5907 10.7581 12.6118 10.7674L12.6137 10.7803C12.4418 10.9321 12.1905 11.1304 12.0757 11.1903L12.1444 11.3338C12.2192 11.2895 12.2856 11.2398 12.3778 11.1625C12.3968 11.1466 12.4659 11.088 12.4627 11.0906C12.4975 11.0612 12.5244 11.0389 12.5516 11.0171C12.6615 10.9289 12.7623 10.8612 12.8805 10.8009C13.2785 10.5978 13.6556 10.3454 14.0123 10.0343C13.9898 10.0118 13.9536 9.97163 13.9263 9.93966L13.9314 9.93663L13.9224 9.93505L13.9263 9.93966C13.8634 9.97731 13.8041 10.0192 13.7481 10.059C13.7148 10.0222 13.6896 9.96865 13.6633 9.88893C13.6598 9.87818 13.6517 9.85241 13.644 9.82752L13.644 9.82748L13.644 9.82748L13.644 9.82745C13.6366 9.80364 13.6294 9.78067 13.6267 9.77244C13.6136 9.73307 13.6027 9.70849 13.5912 9.69428C13.5792 9.67946 13.5677 9.67729 13.5524 9.68816C13.5312 9.70276 13.4685 9.73913 13.4019 9.77635C13.392 9.77054 13.3817 9.77032 13.3709 9.77629L13.3776 9.78968L13.3774 9.78981L13.3706 9.77628C13.4451 9.735 13.521 9.69134 13.544 9.67543C13.5656 9.66008 13.5853 9.66381 13.6019 9.68436C13.615 9.70046 13.6264 9.7263 13.6401 9.76739C13.6429 9.77578 13.6501 9.79908 13.6576 9.82306L13.6576 9.8231C13.6653 9.84786 13.6733 9.87334 13.6768 9.88392C13.7024 9.96172 13.7269 10.0137 13.7485 10.0479ZM13.3797 9.78874L13.4019 9.77635C13.4154 9.78423 13.4282 9.80239 13.4408 9.82931C13.4567 9.86311 13.47 9.90301 13.4939 9.98295C13.5101 10.0374 13.5104 10.0384 13.5164 10.0573C13.5399 10.1321 13.5579 10.172 13.5744 10.1813L13.5758 10.1938C13.5041 10.2609 13.4223 10.3204 13.3224 10.3814C13.2811 10.4066 13.1792 10.4638 13.1038 10.5061L13.1037 10.5061C13.062 10.5295 13.0284 10.5484 13.0177 10.5548C12.9383 10.6018 12.8834 10.6415 12.8328 10.6834C12.8072 10.6568 12.7848 10.6199 12.7558 10.5617L12.7474 10.5444C12.7384 10.5261 12.7252 10.4991 12.7204 10.4897C12.7077 10.4646 12.6974 10.4471 12.6877 10.4342C12.6675 10.4073 12.6523 10.4034 12.6349 10.4223C12.6165 10.4435 12.5842 10.4774 12.5297 10.5331L12.5279 10.5349C12.5347 10.528 12.5014 10.562 12.4764 10.5877C12.4655 10.5849 12.4545 10.589 12.4429 10.6006L12.4528 10.6115L12.4526 10.6117L12.4425 10.6007C12.4572 10.5855 12.5275 10.5137 12.5174 10.5241L12.5192 10.5221C12.5734 10.4667 12.6057 10.4328 12.624 10.4119C12.6487 10.3849 12.6738 10.3914 12.6988 10.4247C12.7092 10.4384 12.7198 10.4567 12.733 10.4825C12.7378 10.492 12.7512 10.5193 12.7601 10.5376L12.7684 10.5546C12.79 10.5979 12.8077 10.629 12.8212 10.6525L12.8212 10.6525L12.8325 10.6725C12.874 10.6295 12.9298 10.5891 13.0102 10.5414C13.0211 10.535 13.055 10.5159 13.097 10.4924C13.1724 10.4501 13.2738 10.3932 13.3148 10.3682C13.4108 10.3096 13.4898 10.2524 13.559 10.1887C13.5409 10.1715 13.5241 10.1315 13.5022 10.0621C13.4963 10.0431 13.4959 10.042 13.4797 9.98751C13.4561 9.90837 13.4429 9.86888 13.4275 9.83606C13.4097 9.79822 13.3941 9.78303 13.3797 9.78874ZM13.3797 9.78874L13.3776 9.78968L13.3777 9.78982L13.3797 9.78874ZM12.4528 10.6115L12.4556 10.6089L12.453 10.6116L12.4528 10.6115ZM11.8602 12.6438C11.9313 12.6996 12.0385 12.634 12.1728 12.4726C12.2803 12.3435 12.4017 12.1567 12.5171 11.9506L12.5056 11.9413L11.8594 12.6324L11.8602 12.6438ZM11.8761 12.6365L11.87 12.6431L11.8691 12.6316C11.8714 12.6334 11.8737 12.635 11.8761 12.6365ZM12.1621 12.4625C12.0374 12.6123 11.9386 12.6755 11.8761 12.6365L12.4737 11.9975C12.3682 12.181 12.2593 12.3458 12.1621 12.4625ZM12.4737 11.9975C12.4841 11.9794 12.4945 11.9612 12.5048 11.9428L12.5162 11.952L12.4737 11.9975ZM12.5977 11.8967C12.6577 11.9432 12.7146 11.9918 12.7681 12.0424L12.7775 12.0309L12.7777 12.031L12.7682 12.0427L12.5972 11.8965L12.6061 11.8844L12.6065 11.8847L12.5977 11.8967ZM12.6083 11.8861L12.6065 11.8847L12.6066 11.8846L12.6083 11.8861ZM12.6083 11.8861L12.7757 12.0292L12.7775 12.0309L12.7776 12.0308L12.7757 12.0292C12.7231 11.9795 12.6671 11.9318 12.6083 11.8861ZM13.5578 13.0041C13.5591 13.0053 13.5603 13.0066 13.5615 13.0078L13.5727 12.9961C13.5727 12.9962 13.5728 12.9962 13.5728 12.9962L13.5615 13.008L13.5578 13.0041ZM13.4434 12.8835L13.5578 13.0041C13.5204 12.9667 13.4825 12.9268 13.4434 12.8835ZM13.4396 12.8793C13.4395 12.8793 13.4395 12.8792 13.4395 12.8792L13.451 12.8678L13.5728 12.9961L13.5727 12.9961C13.533 12.9566 13.4927 12.9142 13.451 12.868L13.4396 12.8793ZM13.4396 12.8793C13.4408 12.8807 13.4421 12.8821 13.4434 12.8835L13.4395 12.8794L13.4396 12.8793Z" fill="black"/>
<path fill-rule="evenodd" clip-rule="evenodd" d="M11.8751 11.6731L11.8711 11.6596C11.8769 11.6601 11.8828 11.6607 11.8887 11.6613L11.8751 11.6731ZM12.726 11.631C12.7382 11.6605 12.736 11.6942 12.7213 11.7314C12.708 11.7653 12.6853 11.8003 12.6528 11.8412C12.6407 11.8564 12.6287 11.8706 12.5976 11.8968C12.3782 11.7265 12.1546 11.6217 11.9602 11.599L11.8887 11.6613C12.285 11.7049 12.7696 12.0698 13.0939 12.5439C13.4074 13.0021 13.7488 13.2918 14.1672 13.5212C14.1496 13.5521 14.1444 13.5795 14.1392 13.6437L14.1391 13.6453C14.1379 13.6605 14.1372 13.6685 14.1362 13.6775C14.1076 13.9393 13.9909 14.1218 13.8335 14.201C13.7236 14.2562 13.6135 14.2464 13.569 14.185C13.5686 14.1702 13.5673 14.1555 13.565 14.1395C13.5817 14.2247 13.7028 14.2497 13.8271 14.1872C13.9798 14.1104 14.0936 13.9324 14.1216 13.6758C14.1226 13.6669 14.1232 13.6591 14.1244 13.6441L14.1246 13.6424C14.1299 13.576 14.1355 13.5469 14.1576 13.5241C13.7401 13.3045 13.3969 13.0131 13.0819 12.5528C12.7551 12.075 12.2644 11.7089 11.8698 11.6749L11.8657 11.6614L11.9561 11.5855C12.1588 11.6067 12.3848 11.7127 12.5963 11.8855C12.6177 11.8604 12.6295 11.8464 12.6415 11.8313C12.6732 11.7916 12.6951 11.7577 12.7077 11.7255C12.7298 11.6695 12.7209 11.6248 12.673 11.5902L12.6814 11.5777C12.6814 11.5777 12.6814 11.5777 12.6814 11.5777L12.6731 11.5902C12.6906 11.6032 12.7083 11.6168 12.726 11.631ZM13.5814 12.6975C13.5863 12.7522 13.5356 12.8111 13.4394 12.8784C13.3394 12.7657 13.2436 12.6403 13.1519 12.5012C13.0425 12.3351 12.9107 12.1773 12.7677 12.0315C12.8802 11.909 12.9298 11.8134 12.8737 11.7612C12.8233 11.7131 12.7742 11.6697 12.726 11.631C12.7187 11.6133 12.7062 11.5971 12.688 11.5826C12.7516 11.6303 12.8163 11.6859 12.8833 11.7498C12.9496 11.8115 12.8971 11.9125 12.7777 12.0311C12.9211 12.1667 13.0537 12.3254 13.1637 12.4925C13.255 12.631 13.3505 12.7558 13.4403 12.8671C13.551 12.7823 13.5944 12.7148 13.5483 12.6561L13.5595 12.6464C13.5595 12.6464 13.5595 12.6464 13.5595 12.6464L13.5484 12.6561C13.5594 12.6701 13.5704 12.6838 13.5814 12.6975ZM14.5636 13.0832C14.4366 13.1062 14.3832 13.1496 14.3285 13.249C14.3278 13.2502 14.327 13.2518 14.3261 13.2535C14.3168 13.2705 14.2955 13.3096 14.2908 13.305C14.3077 13.3161 14.3091 13.3329 14.298 13.3522C14.2902 13.3657 14.2776 13.3797 14.2549 13.4017L14.2482 13.4082C14.2091 13.4457 14.1968 13.4599 14.1961 13.4713L14.1854 13.4775C13.9519 13.3464 13.7467 13.1953 13.5515 12.9858C13.657 12.9052 13.6969 12.8382 13.6502 12.779C13.6268 12.7522 13.604 12.7252 13.5814 12.6975C13.58 12.6814 13.5738 12.6658 13.5627 12.6504C13.5948 12.6912 13.6272 12.7302 13.6611 12.7689C13.7159 12.8386 13.6717 12.9128 13.5607 12.9865C13.7533 13.1808 13.9548 13.3299 14.1838 13.4593C14.1889 13.4456 14.2035 13.4302 14.2383 13.3969L14.2449 13.3905C14.2666 13.3695 14.2786 13.3562 14.2854 13.3443C14.2928 13.3315 14.2921 13.324 14.2805 13.3078C14.2812 13.3064 14.2835 13.3019 14.2867 13.2959C14.2955 13.2794 14.3105 13.2509 14.3158 13.2414C14.3782 13.1279 14.4408 13.0835 14.6021 13.0617L14.6061 13.0762C14.4275 13.1654 14.391 13.3634 14.505 13.4324C14.5216 13.4404 14.5335 13.4463 14.5499 13.4545L14.5504 13.4548C14.5835 13.4714 14.5869 13.4731 14.608 13.4834C14.7828 13.5695 14.8581 13.6792 14.8475 13.8122C14.8386 13.922 14.7733 14.0427 14.6543 14.1908C14.4823 14.405 14.4139 14.578 14.3141 14.9644C14.2053 15.3853 14.1296 15.5719 13.9284 15.8103C13.7443 16.0284 13.4912 15.9518 13.4641 15.749C13.4544 15.6765 13.46 15.5945 13.4799 15.4802C13.4889 15.429 13.5253 15.2534 13.5434 15.1667C13.5435 15.166 13.5437 15.1652 13.5438 15.1645C13.5383 15.1983 13.5371 15.229 13.5398 15.2562C13.5219 15.343 13.5008 15.4459 13.4944 15.483C13.4747 15.5957 13.4692 15.6763 13.4786 15.7469C13.504 15.9366 13.7417 16.0086 13.9176 15.8001C14.117 15.564 14.192 15.3792 14.3001 14.9604C14.4005 14.572 14.4695 14.3973 14.6433 14.181C14.7605 14.0351 14.8246 13.9167 14.8331 13.8109C14.8432 13.685 14.7717 13.5809 14.6019 13.4973C14.5809 13.487 14.5774 13.4852 14.5442 13.4686L14.5437 13.4683C14.5274 13.4601 14.5156 13.4543 14.4985 13.446C14.3811 13.3749 14.4072 13.1848 14.5636 13.0832ZM13.5571 15.1729C13.5523 15.1961 13.5462 15.2251 13.5398 15.2562C13.5474 15.3329 13.586 15.3814 13.6481 15.3891C13.7411 15.4007 13.8609 15.3166 13.9575 15.161C14.0381 15.0311 14.0776 14.9088 14.1356 14.6529C14.1645 14.5256 14.1675 14.5126 14.1807 14.4605C14.1035 14.4147 14.0402 14.3543 14.004 14.2903C14.0029 14.2883 14.0018 14.2864 14.0007 14.2844C14.0092 14.2827 14.0176 14.278 14.0259 14.2715C14.0333 14.2658 14.0405 14.2588 14.0474 14.2514C14.0595 14.2386 14.0704 14.2252 14.0823 14.2092C14.086 14.2041 14.0949 14.1917 14.1017 14.1822C14.1025 14.181 14.1033 14.1799 14.1041 14.1788C14.1353 14.2235 14.1793 14.2656 14.2237 14.2904C14.2801 14.1554 14.2786 14.0717 14.2283 13.9239L14.2145 13.924C14.1738 14.0529 14.0807 14.2098 13.9991 14.2751C13.9962 14.2775 13.9932 14.2797 13.9902 14.2819C13.9902 14.2819 13.9902 14.2819 13.9901 14.2819C13.8055 14.4155 13.5504 14.3961 13.5604 14.3047C13.5612 14.2966 13.562 14.2892 13.5639 14.2728C13.568 14.238 13.5698 14.2114 13.569 14.185C13.5594 14.1717 13.5529 14.156 13.5501 14.1381L13.5643 14.1357C13.5645 14.137 13.5648 14.1383 13.565 14.1395C13.5648 14.1382 13.5646 14.137 13.5644 14.1357L13.5643 14.1357C13.5643 14.1357 13.5643 14.1356 13.5643 14.1356L13.5499 14.138C13.5566 14.1829 13.5557 14.2164 13.5493 14.271C13.5474 14.2873 13.5466 14.2949 13.5458 14.3031C13.5338 14.4131 13.8039 14.434 13.9966 14.2957C14.033 14.3685 14.0967 14.428 14.1704 14.4654C14.1533 14.5088 14.1503 14.5219 14.1214 14.6494C14.0637 14.9036 14.0246 15.0246 13.9452 15.1526C13.8513 15.3039 13.7362 15.3848 13.6497 15.3739C13.5764 15.3648 13.5395 15.2904 13.5571 15.1729ZM13.5534 15.1188C13.5534 15.1186 13.5534 15.1185 13.5535 15.1183L13.5676 15.1219C13.5666 15.1269 13.5629 15.1448 13.5576 15.1703C13.5574 15.1712 13.5573 15.172 13.5571 15.1729C13.5595 15.1568 13.5629 15.1399 13.5674 15.1223L13.5534 15.1188ZM13.5534 15.1188C13.5532 15.1195 13.553 15.1202 13.5528 15.121C13.553 15.1201 13.5532 15.1193 13.5533 15.1188L13.5534 15.1188ZM14.1094 14.1705L14.11 14.1705C14.1091 14.1717 14.1069 14.1748 14.1041 14.1788C14.104 14.1787 14.104 14.1786 14.1039 14.1785C14.102 14.1757 14.1001 14.173 14.0982 14.1702L14.1094 14.1705ZM14.1128 14.1655C14.1567 14.0996 14.1961 14.0215 14.2213 13.9496C14.2637 14.0814 14.2629 14.1598 14.2202 14.281C14.1864 14.2526 14.1429 14.21 14.1128 14.1655ZM14.5636 13.0832C14.5763 13.0809 14.5898 13.0788 14.604 13.0769L14.6 13.0624C14.5872 13.0688 14.575 13.0758 14.5636 13.0832ZM13.5528 15.121C13.5515 15.1277 13.5482 15.1433 13.5438 15.1645C13.5461 15.1505 13.5491 15.136 13.5528 15.121ZM13.5627 12.6504C13.5616 12.6491 13.5606 12.6477 13.5595 12.6464L13.5596 12.6463C13.5607 12.6477 13.5617 12.649 13.5627 12.6504ZM12.688 11.5826C12.6858 11.581 12.6836 11.5793 12.6814 11.5777L12.6814 11.5776C12.6837 11.5793 12.6859 11.5809 12.688 11.5826Z" fill="black"/>
<path fill-rule="evenodd" clip-rule="evenodd" d="M14.624 12.873L14.509 12.7271L14.4963 12.7302L14.4544 12.9205L14.2736 12.9188L14.2681 12.9312L14.3846 13.0843L14.271 13.2305L14.2767 13.2428L14.4637 13.244L14.5009 13.4283L14.5136 13.4313L14.6309 13.2786L14.7932 13.362L14.8033 13.3533L14.7608 13.1627L14.9247 13.0822L14.9246 13.0685L14.7559 12.9828L14.7996 12.7994L14.7893 12.7908L14.624 12.873ZM14.7822 12.8113L14.6251 12.8894L14.6164 12.8874L14.5068 12.7483L14.5105 12.7336L14.4978 12.7368L14.5068 12.7483L14.4616 12.9299L14.2881 12.9337L14.2794 12.9216L14.2739 12.9341L14.2881 12.9337L14.396 13.0842L14.2912 13.228L14.2768 13.2275L14.2826 13.2398L14.2912 13.228L14.4708 13.2346L14.5116 13.4102L14.5023 13.4217L14.515 13.4247L14.5116 13.4102L14.6283 13.2669L14.7862 13.3419L14.7891 13.3568L14.7992 13.3481L14.7862 13.3419L14.7505 13.1576L14.9055 13.0753L14.9182 13.0823L14.9181 13.0686L14.9055 13.0753L14.7456 12.988L14.7822 12.8113ZM14.7822 12.8113L14.7956 12.8046L14.7853 12.7961L14.7822 12.8113Z" fill="black"/>
<path fill-rule="evenodd" clip-rule="evenodd" d="M14.0588 8.85343C14.4444 8.73597 14.7688 8.40242 14.8434 8.04312L14.8529 8.03753C15.2989 8.20152 15.697 8.41887 16.064 8.67964C16.2163 8.78781 16.3072 8.83125 16.5744 8.93949C16.7017 8.99106 16.7766 9.02542 16.8529 9.07103C16.713 8.67543 16.8045 8.07359 17.0685 7.54772C17.3808 6.92571 17.4441 6.45704 17.4047 5.78001C17.3828 5.40363 17.5703 5.31012 17.9649 5.38425C18.2223 5.43266 18.406 5.40871 18.7531 5.31247L18.78 5.30499C19.1736 5.19562 19.3684 5.17128 19.6637 5.23469C19.9356 5.29297 19.999 5.5616 19.8452 5.68747C19.787 5.73521 19.7119 5.77245 19.596 5.81467C19.5596 5.82796 19.447 5.86571 19.3656 5.89301L19.3656 5.89302C19.3257 5.90639 19.2933 5.91724 19.281 5.92149L19.2688 5.92588C19.2808 5.91821 19.2911 5.90923 19.2996 5.89911L19.3614 5.87836L19.3614 5.87835C19.4428 5.85107 19.555 5.81344 19.5913 5.80022C19.7058 5.75851 19.7796 5.7219 19.8363 5.67541C19.9801 5.55764 19.9206 5.30537 19.6608 5.24967C19.3682 5.18686 19.1753 5.21096 18.7837 5.31977L18.7568 5.32725C18.4079 5.42402 18.2224 5.4482 17.9624 5.39931C17.5757 5.32666 17.3981 5.41524 17.4193 5.77908C17.4588 6.45866 17.3952 6.92996 17.0814 7.55486C16.8146 8.08621 16.7252 8.69537 16.8739 9.0857L16.8634 9.09512C16.7815 9.04439 16.7057 9.00907 16.5692 8.95376C16.301 8.8451 16.2094 8.80133 16.0559 8.6923C15.6919 8.43375 15.2974 8.218 14.8558 8.05481L14.8576 8.04637L14.8481 8.05196L14.8558 8.05481C14.7768 8.41662 14.4504 8.75004 14.0677 8.86335C13.9693 9.15227 14.1257 9.63004 14.3884 9.91193C14.5303 9.9806 14.6777 10.0377 14.8313 10.0842C15.3044 10.2276 15.6918 10.2589 16.4617 10.2608C16.8569 10.2617 17.0111 10.2673 17.1759 10.2949C17.4377 10.3387 17.7958 10.1265 17.8416 9.80009C17.8491 9.74589 17.8599 9.69622 17.8757 9.63936C17.8854 9.6042 17.9283 9.46412 17.9242 9.47788C17.9459 9.40524 17.963 9.34171 17.9796 9.26836C18.0336 9.02974 18.0732 8.7216 18.099 8.27902C18.1089 8.10841 18.1116 8.04083 18.1245 7.67659C18.1406 7.2204 18.1556 7.03507 18.1974 6.90481C18.3065 6.56495 18.3938 6.41236 18.5777 6.33466C18.6514 6.30352 18.7196 6.26612 18.7946 6.21711L18.797 6.2242L18.8064 6.22742C18.7291 6.27818 18.659 6.31677 18.5831 6.34884C18.4046 6.42427 18.319 6.57395 18.2112 6.9097C18.1701 7.0379 18.1551 7.22293 18.139 7.67716C18.1261 8.04154 18.1234 8.10917 18.1135 8.27995C18.0877 8.72335 18.048 9.03235 17.9938 9.2719C17.9771 9.34563 17.9599 9.4095 17.938 9.48247C17.9421 9.46891 17.8993 9.60871 17.8897 9.64364C17.8741 9.69986 17.8634 9.74886 17.856 9.80231C17.8089 10.138 17.4427 10.355 17.1736 10.31C17.0099 10.2826 16.856 10.277 16.4616 10.2761C15.6905 10.2742 15.302 10.2428 14.8272 10.0989C14.673 10.0521 14.5249 9.99482 14.3801 9.92423C14.1117 9.63694 13.9534 9.15339 14.0588 8.85343ZM18.8213 6.2175L18.8064 6.22742L18.808 6.22796C18.8126 6.22462 18.8171 6.22113 18.8213 6.2175ZM18.8566 6.17509C18.8476 6.19082 18.8359 6.20501 18.8213 6.2175C18.8456 6.20128 18.8705 6.18386 18.8967 6.16506C18.9114 6.1545 18.9437 6.13072 18.974 6.10842L18.9768 6.10967C18.9879 6.10134 18.998 6.09279 19.0072 6.08397L19.0377 6.06159C19.0905 6.02332 19.1312 5.99603 19.1706 5.97326C19.1937 5.95987 19.216 5.94838 19.2377 5.93868L19.2404 5.94022C19.2508 5.93615 19.2603 5.93135 19.2688 5.92588C19.2585 5.92973 19.2482 5.934 19.2377 5.93868L19.2288 5.93368L19.2283 5.92626C19.2337 5.92383 19.239 5.9215 19.2443 5.91928L19.2444 5.92144C19.241 5.92312 19.2374 5.92469 19.2336 5.92615L19.2452 5.9327L19.2444 5.92144C19.2495 5.91901 19.2542 5.91635 19.2587 5.91348C19.2646 5.91117 19.2706 5.909 19.2765 5.90696L19.2996 5.89911C19.3646 5.82206 19.3307 5.67882 19.217 5.5468L19.2022 5.55202L19.2283 5.92626C19.2073 5.93582 19.1858 5.94699 19.1635 5.95986C19.1276 5.98063 19.0908 6.00503 19.045 6.03782C19.1064 5.93702 19.0665 5.79674 18.9033 5.54963L18.8901 5.55507L18.9643 6.09687C18.9344 6.11888 18.9029 6.14208 18.8884 6.15245L18.8566 6.17509ZM18.8126 6.20522C18.8269 6.19562 18.8416 6.18558 18.8566 6.17509C18.9233 6.05804 18.8365 5.85559 18.6091 5.62796L18.5972 5.63606L18.7946 6.21711L18.8072 6.20878L18.8075 6.20949L18.7998 6.2153L18.8107 6.21906L18.8075 6.20949L18.8126 6.20522ZM18.6214 5.66181C18.8554 5.90425 18.9216 6.11013 18.8126 6.20522L18.8072 6.20878L18.6214 5.66181ZM18.6214 5.66181L18.599 5.63903L18.6109 5.63092L18.6214 5.66181ZM18.9775 6.08718L18.9643 6.09687L18.9654 6.10455L18.974 6.10842L18.9903 6.09644L18.9903 6.09642L19.0072 6.08397C19.0224 6.06943 19.035 6.05414 19.045 6.03782L19.0294 6.049L18.9971 6.07273C19.096 5.97764 19.0782 5.84844 18.9088 5.58539L18.9043 5.55292L18.8911 5.55836L18.9088 5.58539L18.9775 6.08718ZM18.9778 6.0897C18.9847 6.08415 18.9911 6.0785 18.9971 6.07273L18.9818 6.08398L18.9775 6.08718L18.9778 6.0897ZM18.9778 6.0897L18.9681 6.09727L18.9796 6.1024L18.9778 6.0897ZM19.2203 5.57639L19.2443 5.91928C19.2491 5.91726 19.2539 5.91532 19.2587 5.91348C19.3477 5.85627 19.3293 5.71386 19.2203 5.57639ZM19.2203 5.57639L19.2186 5.55105L19.2037 5.55627C19.2095 5.56296 19.215 5.56967 19.2203 5.57639Z" fill="black"/>
<path fill-rule="evenodd" clip-rule="evenodd" d="M14.6097 8.66308C14.575 8.64777 14.5387 8.63289 14.5003 8.61835L14.498 8.60535C14.5074 8.59696 14.5192 8.58578 14.5314 8.57426C14.5482 8.55846 14.5656 8.54201 14.5782 8.53125C14.5973 8.53899 14.6158 8.54683 14.6339 8.55479C14.7749 8.61677 14.8365 8.6541 15.023 8.77972C15.2467 8.93035 15.4013 9.0009 15.7205 9.07047C16.1 9.15327 16.5813 9.33224 16.8067 9.47254L16.7745 9.57023C16.5536 9.43904 16.0737 9.2606 15.6958 9.17828C15.3748 9.10829 15.2186 9.037 14.9934 8.88537C14.8087 8.76093 14.7481 8.72422 14.6097 8.66308ZM14.5076 8.61697L14.5054 8.60397C14.5093 8.60544 14.5131 8.60692 14.517 8.60841C14.5137 8.61147 14.5105 8.61435 14.5076 8.61697ZM14.5812 8.5434C14.5688 8.55839 14.5394 8.58766 14.517 8.60841C14.5513 8.62162 14.5841 8.63513 14.6154 8.64898C14.7549 8.71057 14.816 8.7476 15.0014 8.87249C15.2251 9.02317 15.3798 9.09372 15.6989 9.1633C16.0782 9.24593 16.5594 9.42489 16.7712 9.56176L16.7962 9.47738C16.5757 9.34638 16.0957 9.16793 15.7176 9.08543C15.3966 9.01546 15.2404 8.94416 15.0153 8.79258C14.8294 8.66742 14.7683 8.63042 14.6284 8.56888C14.6274 8.56845 14.6264 8.56802 14.6254 8.56759C14.6084 8.56012 14.5914 8.55266 14.5812 8.5434Z" fill="black"/>
<path fill-rule="evenodd" clip-rule="evenodd" d="M17.4917 7.14561C17.5105 7.08932 17.5266 7.03618 17.5404 6.98484L17.5243 6.98096L17.5242 6.98123L17.5241 6.9812C17.5238 6.98241 17.5235 6.98362 17.5231 6.98483L17.4769 7.13709C17.4765 7.13845 17.476 7.1398 17.4756 7.14116L17.4757 7.14119L17.4757 7.14132L17.4917 7.14561ZM17.4757 7.14119L17.4916 7.14545L17.5402 6.98509L17.5242 6.98123L17.5231 6.98483C17.51 7.03352 17.4946 7.08389 17.4769 7.13709L17.4757 7.14119ZM15.0002 8.27959C14.9412 8.25663 14.8745 8.22228 14.8097 8.18226L14.8065 8.17326L14.8146 8.14738L14.8146 8.14738C14.8259 8.11051 14.839 8.06829 14.8527 8.03781C15.2986 8.2018 15.6967 8.41915 16.0638 8.67992C16.2161 8.78809 16.307 8.83153 16.5741 8.93977C16.7114 8.99537 16.7878 9.03096 16.8731 9.09271L16.7817 9.24012C16.6677 9.17001 16.3861 9.04378 16.1772 8.96374C16.1764 8.98536 16.1669 9.01015 16.1493 9.04243C16.1453 9.04977 16.141 9.05719 16.1351 9.06728C16.1077 9.11427 16.1023 9.12434 16.0975 9.14074C16.0918 9.16032 16.0959 9.1705 16.1134 9.17592L16.1093 9.19062L16.1092 9.19058L16.1132 9.17589L16.0823 9.16677C16.0797 9.15827 16.0802 9.14801 16.0836 9.13626C16.089 9.11801 16.0944 9.10791 16.1227 9.05929C16.1285 9.04932 16.1327 9.04201 16.1366 9.03483C16.1561 8.99915 16.1647 8.97379 16.1623 8.95363L16.172 8.94548C16.3826 9.02556 16.6722 9.15508 16.7791 9.22964L16.8631 9.0954C16.7812 9.04467 16.7054 9.00935 16.5689 8.95404C16.3007 8.84538 16.2091 8.80161 16.0556 8.69258C15.6895 8.43252 15.2926 8.21577 14.8573 8.04683C14.85 8.07832 14.835 8.13119 14.8222 8.1722L14.8171 8.16908L14.8203 8.17808L14.8222 8.1722C14.8846 8.21046 14.9488 8.24347 15.0097 8.27459C15.0075 8.28239 15.0048 8.2903 15.0016 8.29833C14.9832 8.3444 14.9514 8.3901 14.8988 8.45244L14.8734 8.48209L14.8431 8.51758C14.8235 8.54085 14.8103 8.55813 14.8008 8.57324C14.7792 8.60751 14.7791 8.62649 14.8018 8.63807C14.8244 8.64996 14.8845 8.68803 14.9497 8.73072C14.9499 8.74263 14.9548 8.75207 14.9651 8.75889L14.9728 8.74595L14.9729 8.74596L14.9651 8.7589C14.892 8.71066 14.8199 8.66471 14.7953 8.65178C14.7627 8.63513 14.7629 8.60572 14.7886 8.56481C14.7986 8.54898 14.8122 8.53123 14.8322 8.50747L14.8627 8.47173L14.8879 8.4423C14.9396 8.38114 14.9706 8.33651 14.9882 8.29242L14.9887 8.29125C14.9915 8.28415 14.9941 8.27762 15.0002 8.27959ZM14.9728 8.74595L14.9497 8.73072C14.9494 8.71505 14.9574 8.69511 14.9724 8.67126C14.9915 8.64058 15.0182 8.60763 15.0691 8.54949L15.0756 8.54203C15.1696 8.43472 15.1982 8.39687 15.1975 8.37125L15.2071 8.36376C15.3246 8.40458 15.4344 8.46358 15.5769 8.55582L15.582 8.55919L15.582 8.55919L15.582 8.55919L15.582 8.5592L15.582 8.5592L15.5821 8.55922C15.6108 8.57819 15.7508 8.67059 15.7907 8.69511C15.8657 8.74122 15.9242 8.77013 15.9825 8.79473C15.9761 8.82023 15.9642 8.8481 15.9466 8.8806C15.9376 8.89713 15.9277 8.91403 15.9142 8.93607L15.9135 8.93722C15.8695 9.00899 15.8608 9.02327 15.8544 9.03854C15.8528 9.04233 15.8513 9.04618 15.8495 9.05098L15.8493 9.05161C15.8374 9.08312 15.8418 9.09885 15.8661 9.1052C15.8928 9.11133 15.9372 9.12386 16.0114 9.14578L16.0171 9.14746L16.0676 9.16243L16.0823 9.16677C16.0857 9.1779 16.0945 9.18603 16.1092 9.19058L16.0636 9.17714L16.0131 9.16218L16.0075 9.1605C15.9336 9.13868 15.8893 9.12618 15.8628 9.12009C15.8283 9.11106 15.821 9.08511 15.8357 9.04599L15.8361 9.04499L15.8361 9.04498L15.8361 9.04497L15.8361 9.04496C15.8381 9.03983 15.8396 9.03575 15.8413 9.03173C15.8479 9.01605 15.8569 9.00137 15.9009 8.9295L15.902 8.9278C15.9153 8.90597 15.9251 8.88928 15.9339 8.87304C15.94 8.86179 15.9454 8.85114 15.9503 8.84143L15.9503 8.84142C15.9591 8.82399 15.9664 8.80959 15.9735 8.80017C15.9189 8.78445 15.8594 8.75503 15.7833 8.7083C15.743 8.68353 15.6016 8.59018 15.574 8.57193L15.5739 8.57191L15.5739 8.57189L15.5693 8.56884C15.4312 8.4795 15.3243 8.42164 15.2113 8.38139C15.2063 8.41151 15.1753 8.45075 15.0863 8.55238L15.0798 8.55983C15.0295 8.61733 15.0031 8.64991 14.9845 8.67965C14.9623 8.7152 14.9588 8.73663 14.9728 8.74595ZM18.0857 8.69853C18.0962 8.60598 17.9885 8.54146 17.7882 8.50002C17.628 8.46688 17.4132 8.44994 17.1854 8.44802L17.1835 8.46307L18.0767 8.70503L18.0857 8.69853ZM18.0716 8.6879L18.0801 8.6902L18.071 8.6967C18.0713 8.69374 18.0715 8.69081 18.0716 8.6879ZM17.2457 8.46417C17.4499 8.46835 17.6403 8.48502 17.7852 8.515C17.9711 8.55347 18.0726 8.61158 18.0716 8.6879L17.2457 8.46417ZM17.2457 8.46417C17.2256 8.46375 17.2054 8.46346 17.1851 8.46329L17.1869 8.44824L17.2457 8.46417ZM17.103 8.40185C17.1126 8.32379 17.1259 8.24779 17.143 8.17408L17.1266 8.17127L17.0865 8.39977L17.103 8.40185ZM17.1029 8.40221L17.0864 8.40013C17.0961 8.32159 17.1095 8.24511 17.1267 8.1709L17.1431 8.1737L17.1029 8.40221Z" fill="black"/>
<path fill-rule="evenodd" clip-rule="evenodd" d="M17.4 7.63297C17.1693 8.16906 17.1126 8.79837 17.2818 9.1742L17.2727 9.18464L17.1649 9.14049C17.0811 8.94538 17.0556 8.68692 17.0924 8.4082L17.0556 8.40027C17.0253 8.39391 17.0015 8.38976 16.9784 8.38725C16.877 8.37623 16.819 8.40154 16.8108 8.48139C16.8128 8.4602 16.8151 8.43865 16.8178 8.41672C16.8467 8.37598 16.9025 8.36363 16.9799 8.37204C17.0035 8.37461 17.0277 8.37883 17.0584 8.38528C17.0668 8.38704 17.0931 8.39275 17.1011 8.40157C17.0703 8.68612 17.0956 8.94189 17.1741 9.13017L17.2613 9.16393C17.2637 9.16958 17.2662 9.17519 17.2687 9.18073L17.2778 9.17029L17.2613 9.16393C17.0991 8.78177 17.1578 8.15861 17.3867 7.62668C17.6079 7.11243 17.6763 6.65699 17.6561 6.16212C17.6898 6.16273 17.7157 6.15375 17.7686 6.12767L17.7711 6.12643C17.7856 6.11927 17.7924 6.11601 17.8007 6.11223C18.0308 6.00735 18.2397 6.02219 18.3837 6.12575C18.4838 6.19771 18.5307 6.30212 18.5031 6.37317C18.4906 6.38123 18.4796 6.39002 18.4643 6.40295L18.4734 6.41483C18.4871 6.40306 18.497 6.38894 18.5031 6.37317C18.5228 6.36039 18.5462 6.34945 18.596 6.32676L18.6057 6.32226C18.6861 6.28545 18.5746 6.04384 18.372 5.94278C18.372 5.94278 18.372 5.94278 18.372 5.94278C18.2804 5.89701 18.0961 5.88933 17.9647 5.91768L17.9576 5.90524C18.0546 5.78554 18.1227 5.74235 18.2623 5.72619C18.2641 5.77902 18.2514 5.84009 18.2301 5.89076L18.2202 5.88952L18.2204 5.88996L18.2258 5.9004C18.2273 5.8973 18.2286 5.89416 18.23 5.89097C18.23 5.8909 18.23 5.89083 18.2301 5.89076L18.2353 5.89142C18.2767 5.89641 18.3041 5.90088 18.3274 5.90959C18.342 5.91502 18.355 5.92211 18.3689 5.932C18.37 5.93003 18.3711 5.92804 18.3721 5.92602C18.4068 5.86091 18.4249 5.77328 18.4242 5.68018C18.4627 5.66928 18.5003 5.65789 18.5542 5.64108C18.7255 5.58756 18.7549 5.57882 18.8278 5.56196C18.9318 5.53793 19.0231 5.52789 19.1135 5.53301C19.2902 5.54304 19.4195 5.60986 19.4565 5.70029C19.4811 5.76054 19.4606 5.81976 19.4013 5.86493C19.3875 5.86957 19.3741 5.87408 19.3614 5.87834C19.3476 5.88297 19.3347 5.88729 19.3232 5.89115C19.4292 5.84847 19.4723 5.77761 19.4431 5.70632C19.4087 5.62224 19.2845 5.55802 19.1127 5.54828C19.0238 5.54324 18.9337 5.55314 18.8309 5.57689C18.7585 5.59364 18.7292 5.60235 18.5583 5.65573C18.5044 5.67258 18.4666 5.68401 18.4333 5.687C18.4393 5.77273 18.422 5.86037 18.3802 5.92993C18.5906 6.03608 18.7084 6.29196 18.6116 6.33623L18.6018 6.34079C18.5219 6.37719 18.5116 6.38263 18.4734 6.41486L18.4642 6.40298C18.5303 6.34635 18.4909 6.22137 18.3755 6.13836C18.2358 6.03788 18.0321 6.02341 17.8065 6.12626C17.7983 6.12996 17.7917 6.13318 17.7773 6.14027L17.7748 6.14151C17.7199 6.16855 17.6925 6.17807 17.6632 6.16931C17.6909 6.65844 17.6222 7.11633 17.4 7.63297ZM19.3273 5.90583C19.3563 5.89419 19.3811 5.88038 19.4013 5.86493C19.4759 5.8399 19.5606 5.81137 19.5912 5.80022C19.7057 5.75851 19.7795 5.7219 19.8362 5.67541C19.98 5.55764 19.9205 5.30537 19.6607 5.24967C19.3681 5.18686 19.1752 5.21096 18.7836 5.31977L18.7567 5.32725C18.4078 5.42402 18.2223 5.4482 17.9623 5.39931C17.7834 5.36569 17.6536 5.36666 17.5622 5.41185C17.4533 5.46563 17.4032 5.5827 17.4192 5.7789C17.4198 5.78699 17.4202 5.79219 17.4206 5.79739C17.4214 5.80678 17.4221 5.81618 17.424 5.8426L17.4242 5.84577C17.4256 5.86415 17.4267 5.87839 17.4285 5.89857C17.4285 6.04081 17.2589 6.11204 17.097 6.02083C17.0886 6.01034 17.0801 5.99909 17.0713 5.98703L17.0614 5.99795C17.0732 6.00649 17.0851 6.0141 17.097 6.02083C17.1448 6.08049 17.1875 6.11529 17.2322 6.13337C17.274 6.15034 17.3059 6.15284 17.3942 6.1511C17.4084 6.15082 17.4148 6.15071 17.416 6.158C17.4168 6.13622 17.4309 6.1267 17.4538 6.12784C17.4696 6.12862 17.487 6.13327 17.5197 6.14408L17.524 6.1455C17.5726 6.16166 17.5908 6.16581 17.6004 6.16083L17.6109 6.16743C17.6196 6.44492 17.5976 6.7074 17.5224 6.98972C17.4028 6.93411 17.328 6.93135 17.3023 7.00337C17.2918 7.03846 17.281 7.07265 17.2695 7.10659C17.256 7.11668 17.2456 7.13167 17.2384 7.15192L17.252 7.15727C17.252 7.15727 17.252 7.15727 17.252 7.15727C17.258 7.14038 17.2638 7.12352 17.2695 7.10659C17.3122 7.07486 17.3862 7.09149 17.4898 7.14534C17.4468 7.29263 17.3913 7.44257 17.3225 7.59542C17.2402 7.77786 17.176 7.97654 17.1271 8.17963C16.9701 8.1385 16.8662 8.14114 16.8512 8.21835C16.8368 8.28817 16.8256 8.35402 16.8178 8.41672C16.8063 8.433 16.799 8.45382 16.7964 8.47965C16.7962 8.48141 16.7961 8.48316 16.7959 8.48491L16.8104 8.48621C16.8105 8.48458 16.8107 8.48297 16.8108 8.48139C16.8107 8.48303 16.8106 8.48466 16.8104 8.4863L16.7959 8.485M17.5967 6.17786C17.5828 6.17995 17.5627 6.17442 17.5196 6.16008L17.5153 6.15866C17.4839 6.14827 17.4671 6.14381 17.4531 6.14311C17.4374 6.14233 17.431 6.14665 17.4234 6.16591L17.3945 6.16639C17.3042 6.16817 17.2711 6.16556 17.2269 6.14764C17.1716 6.12522 17.1198 6.07907 17.0597 5.99629L17.0697 5.98536C17.2324 6.10324 17.4139 6.0375 17.414 5.89927C17.4122 5.87972 17.4111 5.86541 17.4097 5.84696L17.4095 5.84378C17.4075 5.81738 17.4069 5.808 17.4061 5.79863C17.4057 5.79345 17.4053 5.78826 17.4046 5.7802C17.3882 5.57813 17.441 5.45481 17.556 5.39801C17.6509 5.35111 17.7832 5.35013 17.9648 5.38425C18.2222 5.43266 18.4059 5.40871 18.753 5.31247L18.7799 5.30499C19.1735 5.19562 19.3683 5.17128 19.6636 5.23469C19.9355 5.29297 19.9989 5.5616 19.8452 5.68747C19.7869 5.73521 19.7119 5.77245 19.596 5.81467C19.5595 5.82796 19.4469 5.86571 19.3655 5.89301C19.3517 5.89764 19.3388 5.90197 19.3273 5.90583C19.3127 5.91165 19.2972 5.91694 19.2805 5.92161L19.2764 5.90696C19.2845 5.90416 19.3013 5.8985 19.3232 5.89115C19.3088 5.89692 19.2934 5.90217 19.2768 5.90684L19.2809 5.92149C19.289 5.91871 19.3056 5.91311 19.3273 5.90583M17.9824 5.89861C18.0543 5.88557 18.1384 5.88237 18.2147 5.88941C18.2364 5.83988 18.2498 5.77902 18.2563 5.734C18.1349 5.75569 18.07 5.79411 17.9824 5.89861Z" fill="black"/>
</g>
</svg>
