<svg width="28" height="20" viewBox="0 0 28 20" fill="none" xmlns="http://www.w3.org/2000/svg">
<rect width="28" height="20" rx="2" fill="white"/>
<mask id="mask0_18_2334" style="mask-type:alpha" maskUnits="userSpaceOnUse" x="0" y="0" width="28" height="20">
<rect width="28" height="20" rx="2" fill="white"/>
</mask>
<g mask="url(#mask0_18_2334)">
<rect width="28" height="20" fill="#E6BE53"/>
<path fill-rule="evenodd" clip-rule="evenodd" d="M1.3335 17.6668C1.3335 18.2191 1.78121 18.6668 2.3335 18.6668H25.6668C26.2191 18.6668 26.6668 18.2191 26.6668 17.6668V2.3335C26.6668 1.78121 26.2191 1.3335 25.6668 1.3335H2.3335C1.78121 1.3335 1.3335 1.78121 1.3335 2.3335V17.6668Z" fill="#E01826"/>
<path fill-rule="evenodd" clip-rule="evenodd" d="M13.0233 3.65863C12.5532 3.81535 12.4123 4.41206 12.7627 4.76249L13.1381 5.13782C13.2631 5.26284 13.4327 5.33308 13.6095 5.33308H14.3905C14.5673 5.33308 14.7369 5.26284 14.8619 5.13782L15.2373 4.76249C15.5877 4.41206 15.4468 3.81535 14.9767 3.65863L14.2108 3.40335C14.074 3.35774 13.926 3.35774 13.7892 3.40335L13.0233 3.65863ZM14.4716 6.86168C14.2112 7.12203 13.7891 7.12203 13.5288 6.86168L13.3335 6.66642L12.3399 5.67286C12.137 5.46995 11.827 5.41965 11.5704 5.54798L11.4941 5.58611C11.0871 5.7896 10.9991 6.33203 11.3209 6.65379L11.3335 6.66642L12.3271 7.65999C12.53 7.86289 12.5803 8.17287 12.4519 8.42953L12.0381 9.25717C12.0132 9.3071 12.0002 9.36215 12.0002 9.41797C12.0002 9.68526 11.7189 9.85911 11.4798 9.73957L11.1569 9.57812C10.9158 9.45757 10.8637 9.13626 11.0543 8.94566C11.2085 8.79144 11.2085 8.5414 11.0543 8.38718L10.7433 8.07625C10.6927 8.02559 10.6505 7.96708 10.6184 7.90299L10.0329 6.73188C10.0111 6.68837 9.99421 6.64262 9.98241 6.59543L9.6732 5.35858C9.53705 4.81399 8.82992 4.67119 8.49311 5.12027L7.46683 6.48864C7.38028 6.60404 7.3335 6.7444 7.3335 6.88864V9.17571C7.3335 9.27921 7.35759 9.38128 7.40388 9.47385L7.95178 10.5697C7.98383 10.6337 8.02599 10.6923 8.07666 10.7429L9.257 11.9233C9.30767 11.9739 9.36617 12.0161 9.43026 12.0481L10.6039 12.6349C10.6453 12.6556 10.6909 12.6664 10.7372 12.6664C11.0518 12.6664 11.1519 13.0905 10.8705 13.2312L10.716 13.3085C10.6834 13.3248 10.6537 13.3462 10.6279 13.372L10.3335 13.6664C10.1494 13.8505 9.85092 13.8505 9.66683 13.6664C9.48273 13.4823 9.18426 13.4823 9.00016 13.6664L8.94607 13.7205C8.77931 13.8873 8.73797 14.142 8.84344 14.353L9.14923 14.9646C9.26216 15.1904 9.493 15.3331 9.74552 15.3331H10.5095C10.6129 15.3331 10.715 15.309 10.8076 15.2627L11.8014 14.7658C11.9304 14.7013 12.035 14.5967 12.0995 14.4677L12.4018 13.8632C12.5322 13.6024 12.8797 13.546 13.0859 13.7521C13.2299 13.8961 13.2522 14.1217 13.1393 14.2911L12.37 15.4451C12.1657 15.7514 12.2485 16.1653 12.5549 16.3696L13.6304 17.0866C13.8543 17.2358 14.146 17.2358 14.37 17.0866L15.4455 16.3696C15.7518 16.1653 15.8346 15.7514 15.6304 15.4451L14.8611 14.2911C14.7481 14.1217 14.7705 13.8961 14.9144 13.7521C15.1206 13.546 15.4681 13.6024 15.5985 13.8632L15.9008 14.4677C15.9653 14.5967 16.0699 14.7013 16.1989 14.7658L17.1927 15.2627C17.2853 15.309 17.3874 15.3331 17.4909 15.3331H18.2548C18.5073 15.3331 18.7382 15.1904 18.8511 14.9646L19.1569 14.353C19.2624 14.142 19.221 13.8873 19.0543 13.7205L19.0002 13.6664C18.8161 13.4823 18.5176 13.4823 18.3335 13.6664C18.1494 13.8505 17.8509 13.8505 17.6668 13.6664L17.3724 13.372C17.3466 13.3462 17.3169 13.3248 17.2843 13.3085L17.1298 13.2312C16.8484 13.0905 16.9485 12.6664 17.2631 12.6664C17.3094 12.6664 17.355 12.6556 17.3964 12.6349L18.5701 12.0481C18.6342 12.0161 18.6927 11.9739 18.7433 11.9233L19.9237 10.7429C19.9743 10.6923 20.0165 10.6337 20.0485 10.5697L20.5964 9.47385C20.6427 9.38128 20.6668 9.27921 20.6668 9.17571V6.88864C20.6668 6.7444 20.62 6.60404 20.5335 6.48864L19.5072 5.12027C19.1704 4.67119 18.4633 4.81399 18.3271 5.35858L18.0179 6.59543C18.0061 6.64262 17.9892 6.68837 17.9674 6.73188L17.3819 7.90299C17.3498 7.96708 17.3077 8.02559 17.257 8.07625L16.9461 8.38718C16.7919 8.5414 16.7918 8.79144 16.9461 8.94566C17.1367 9.13626 17.0845 9.45757 16.8434 9.57812L16.5205 9.73957C16.2815 9.85911 16.0002 9.68526 16.0002 9.41797C16.0002 9.36215 15.9872 9.3071 15.9622 9.25717L15.5484 8.42953C15.4201 8.17287 15.4704 7.86289 15.6733 7.65999L16.6668 6.66642L16.6795 6.65379C17.0012 6.33203 16.9132 5.7896 16.5062 5.5861L16.4299 5.54798C16.1733 5.41965 15.8633 5.46995 15.6604 5.67286L14.6668 6.66642L14.4716 6.86168Z" fill="#E6BE53"/>
<path fill-rule="evenodd" clip-rule="evenodd" d="M12.6665 11.3335C12.6665 11.5789 13.0799 11.6606 13.1995 11.4463C13.4319 11.0297 13.7159 10.6668 13.9998 10.6668C14.2838 10.6668 14.5678 11.0297 14.8002 11.4463C14.9198 11.6606 15.3332 11.5789 15.3332 11.3335C15.3332 10.2289 14.7362 9.3335 13.9998 9.3335C13.2635 9.3335 12.6665 10.2289 12.6665 11.3335Z" fill="#215F90"/>
</g>
</svg>
