<svg width="28" height="20" viewBox="0 0 28 20" fill="none" xmlns="http://www.w3.org/2000/svg">
<rect width="28" height="20" rx="2" fill="white"/>
<mask id="mask0_18_1828" style="mask-type:alpha" maskUnits="userSpaceOnUse" x="0" y="0" width="28" height="20">
<rect width="28" height="20" rx="2" fill="white"/>
</mask>
<g mask="url(#mask0_18_1828)">
<rect width="28" height="20" fill="#E81B26"/>
<path fill-rule="evenodd" clip-rule="evenodd" d="M13.9998 13.3332C15.8408 13.3332 17.3332 11.8408 17.3332 9.99984C17.3332 8.15889 15.8408 6.6665 13.9998 6.6665C12.1589 6.6665 10.6665 8.15889 10.6665 9.99984C10.6665 11.8408 12.1589 13.3332 13.9998 13.3332Z" fill="#FFE94F"/>
<path fill-rule="evenodd" clip-rule="evenodd" d="M10.2082 7.2792C10.4095 6.99913 10.641 6.74227 10.8981 6.51341L1.96168 -3.53076L-0.714844 -0.558184L10.2082 7.2792ZM10.8981 13.4863C10.6411 13.2575 10.4095 13.0006 10.2082 12.7205L-0.714844 20.5579L1.96168 23.5305L10.8981 13.4863ZM13.0846 14.5768L12 19.9999H16L14.9154 14.5768C14.6195 14.6357 14.3134 14.6665 14.0002 14.6665C13.6868 14.6665 13.3807 14.6356 13.0846 14.5768ZM17.792 12.7207C17.5907 13.0007 17.3591 13.2576 17.1021 13.4865L26.0384 23.5305L28.7149 20.5579L17.792 12.7207ZM9.37981 10.6599C9.34929 10.4443 9.3335 10.2239 9.3335 9.99986C9.3335 9.77582 9.34928 9.55546 9.37981 9.33985L2.43187e-05 7.99988V11.9999L9.37981 10.6599ZM13.0846 5.42296L12 -0.000121117H16L14.9154 5.42291C14.6195 5.36405 14.3134 5.33319 14.0002 5.33319C13.6868 5.33319 13.3807 5.36407 13.0846 5.42296ZM18.6205 9.33981C18.651 9.55544 18.6668 9.7758 18.6668 9.99986C18.6668 10.2239 18.651 10.4443 18.6205 10.6599L28 11.9999V7.99988L18.6205 9.33981ZM17.792 7.27907C17.5907 6.99899 17.3591 6.74213 17.1021 6.51327L26.0384 -3.53076L28.7149 -0.558184L17.792 7.27907Z" fill="#FFE94F"/>
</g>
</svg>
