<svg width="28" height="20" viewBox="0 0 28 20" fill="none" xmlns="http://www.w3.org/2000/svg">
<rect width="28" height="20" rx="2" fill="white"/>
<mask id="mask0_18_2561" style="mask-type:alpha" maskUnits="userSpaceOnUse" x="0" y="0" width="28" height="20">
<rect width="28" height="20" rx="2" fill="white"/>
</mask>
<g mask="url(#mask0_18_2561)">
<path fill-rule="evenodd" clip-rule="evenodd" d="M0 20H28V0H0V20Z" fill="#079D7B"/>
<path fill-rule="evenodd" clip-rule="evenodd" d="M15.8849 8.66732C15.8849 8.95918 15.8637 9.24228 15.8238 9.51206C15.9261 9.48062 16.0302 9.45064 16.1361 9.42227C17.9143 8.9458 19.5015 9.10301 19.6811 9.77341C19.8435 10.3793 18.8006 11.197 17.2858 11.7005C17.0182 10.9068 15.6488 10.6673 13.9998 10.6673C12.349 10.6673 10.9785 10.9073 10.713 11.7031C9.21866 11.1986 8.19451 10.3895 8.3555 9.78873C8.53513 9.11832 10.1223 8.96111 11.9005 9.43758C11.9939 9.4626 12.0859 9.48887 12.1765 9.51628C12.1362 9.24523 12.1148 8.9607 12.1148 8.66732C12.1148 6.82637 12.9587 5.33398 13.9998 5.33398C15.0409 5.33398 15.8849 6.82637 15.8849 8.66732ZM10.6665 12.0007L11.833 12.0007C11.6482 11.9644 11.4597 11.9211 11.2689 11.8704C11.4835 11.8767 11.748 11.8951 12.0508 11.916C12.5989 11.954 13.2721 12.0007 13.9998 12.0007C14.7275 12.0007 15.4007 11.954 15.9488 11.916C16.2402 11.8959 16.4962 11.8781 16.7063 11.8712C16.5088 11.9221 16.314 11.9652 16.1235 12.0007L17.3332 12.0007L19.3332 12.0007C19.175 12.4754 18.9622 12.9226 18.7027 13.334H9.297C9.03748 12.9226 8.82463 12.4754 8.66649 12.0007L10.6665 12.0007ZM13.9996 16.0006C15.3463 16.0006 16.5831 15.5012 17.5544 14.6673H10.4448C11.4161 15.5012 12.6529 16.0006 13.9996 16.0006Z" fill="white"/>
<path fill-rule="evenodd" clip-rule="evenodd" d="M14.0002 4.00033C14.3684 4.00033 14.6668 3.70185 14.6668 3.33366C14.6668 2.96547 14.3684 2.66699 14.0002 2.66699C13.632 2.66699 13.3335 2.96547 13.3335 3.33366C13.3335 3.70185 13.632 4.00033 14.0002 4.00033ZM8.66667 7.33366C9.03486 7.33366 9.33333 7.03518 9.33333 6.66699C9.33333 6.2988 9.03486 6.00033 8.66667 6.00033C8.29848 6.00033 8 6.2988 8 6.66699C8 7.03518 8.29848 7.33366 8.66667 7.33366ZM19.9998 6.66697C19.9998 7.03516 19.7014 7.33364 19.3332 7.33364C18.965 7.33364 18.6665 7.03516 18.6665 6.66697C18.6665 6.29878 18.965 6.00031 19.3332 6.00031C19.7014 6.00031 19.9998 6.29878 19.9998 6.66697ZM17.3332 5.33364C17.7014 5.33364 17.9998 5.03516 17.9998 4.66697C17.9998 4.29878 17.7014 4.00031 17.3332 4.00031C16.965 4.00031 16.6665 4.29878 16.6665 4.66697C16.6665 5.03516 16.965 5.33364 17.3332 5.33364ZM11.3333 4.66699C11.3333 5.03518 11.0349 5.33366 10.6667 5.33366C10.2985 5.33366 10 5.03518 10 4.66699C10 4.2988 10.2985 4.00033 10.6667 4.00033C11.0349 4.00033 11.3333 4.2988 11.3333 4.66699Z" fill="#FCD117"/>
</g>
</svg>
