<svg width="28" height="20" viewBox="0 0 28 20" fill="none" xmlns="http://www.w3.org/2000/svg">
<rect width="28" height="20" rx="2" fill="white"/>
<mask id="mask0_18_2536" style="mask-type:alpha" maskUnits="userSpaceOnUse" x="0" y="0" width="28" height="20">
<rect width="28" height="20" rx="2" fill="white"/>
</mask>
<g mask="url(#mask0_18_2536)">
<rect width="28" height="20" fill="#108B4D"/>
<path fill-rule="evenodd" clip-rule="evenodd" d="M19.8134 7.73366C19.862 8.04109 19.8872 8.35629 19.8872 8.67738C19.8872 11.9911 17.2009 14.6774 13.8872 14.6774C10.5735 14.6774 7.88721 11.9911 7.88721 8.67738C7.88721 8.35629 7.91243 8.04109 7.961 7.73366C8.41369 10.599 10.8946 12.7899 13.8872 12.7899C16.8798 12.7899 19.3607 10.599 19.8134 7.73366ZM13.9998 8.56441L12.3517 9.73929L12.9598 7.80881L11.3331 6.60444L13.357 6.58621L13.9998 4.66699L14.6425 6.58621L16.6664 6.60444L15.0398 7.80881L15.6479 9.73929L13.9998 8.56441Z" fill="#FFC941"/>
</g>
</svg>
