<svg width="28" height="20" viewBox="0 0 28 20" fill="none" xmlns="http://www.w3.org/2000/svg">
<rect width="28" height="20" rx="2" fill="white"/>
<mask id="mask0_18_1296" style="mask-type:alpha" maskUnits="userSpaceOnUse" x="0" y="0" width="28" height="20">
<rect width="28" height="20" rx="2" fill="white"/>
</mask>
<g mask="url(#mask0_18_1296)">
<rect width="28" height="20" fill="#128C4B"/>
<path fill-rule="evenodd" clip-rule="evenodd" d="M6.66663 11.9999H17.3333V11.0786C17.3333 10.583 17.8548 10.2607 18.2981 10.4823L18.6666 10.6666V11.9999H20.6666C21.0348 11.9999 21.3333 12.2984 21.3333 12.6666V13.3332C21.3333 14.0696 20.7363 14.6666 20 14.6666H18C17.6318 14.6666 17.3333 14.3681 17.3333 13.9999V13.3332H8.2761C8.09929 13.3332 7.92972 13.263 7.8047 13.138L6.66663 11.9999Z" fill="white"/>
<path fill-rule="evenodd" clip-rule="evenodd" d="M6.66663 8.13799C6.66663 8.04958 6.70174 7.9648 6.76426 7.90229L7.09759 7.56895C7.22777 7.43878 7.22777 7.22772 7.09759 7.09755L6.76426 6.76422C6.70175 6.7017 6.66663 6.61692 6.66663 6.52851V5.66659C6.66663 5.48249 6.81586 5.33325 6.99996 5.33325H7.74532C7.88595 5.33325 7.99996 5.44726 7.99996 5.5879C7.99996 5.8566 8.36219 5.94211 8.48236 5.70178L8.58174 5.50301C8.63377 5.39897 8.7401 5.33325 8.85643 5.33325H10.3333C10.5174 5.33325 10.6666 5.48249 10.6666 5.66659C10.6666 5.85068 10.5174 5.99992 10.3333 5.99992H9.66663C9.48253 5.99992 9.33329 6.14916 9.33329 6.33325C9.33329 6.51735 9.48253 6.66659 9.66663 6.66659H10.3333C10.5174 6.66659 10.6666 6.81582 10.6666 6.99992V8.99992C10.6666 9.18401 10.5174 9.33325 10.3333 9.33325H9.66663C9.48253 9.33325 9.33329 9.18401 9.33329 8.99992V8.33325C9.33329 8.14916 9.48253 7.99992 9.66663 7.99992C9.85072 7.99992 9.99996 7.85068 9.99996 7.66659C9.99996 7.48249 9.85072 7.33325 9.66663 7.33325H8.99996C8.81586 7.33325 8.66663 7.48249 8.66663 7.66659V8.99992C8.66663 9.18401 8.51739 9.33325 8.33329 9.33325C8.1492 9.33325 7.99996 9.18401 7.99996 8.99992V8.33325C7.99996 8.14916 7.85072 7.99992 7.66663 7.99992C7.48253 7.99992 7.33329 8.14916 7.33329 8.33325V8.99992C7.33329 9.18401 7.18405 9.33325 6.99996 9.33325C6.81586 9.33325 6.66663 9.18401 6.66663 8.99992V8.13799Z" fill="white"/>
<path fill-rule="evenodd" clip-rule="evenodd" d="M17.3334 8.13799C17.3334 8.04958 17.3685 7.9648 17.431 7.90229L17.7643 7.56895C17.8945 7.43878 17.8945 7.22772 17.7643 7.09755L17.431 6.76422C17.3685 6.7017 17.3334 6.61692 17.3334 6.52851V5.66659C17.3334 5.48249 17.4826 5.33325 17.6667 5.33325H18.4121C18.5527 5.33325 18.6667 5.44726 18.6667 5.5879C18.6667 5.8566 19.0289 5.94211 19.1491 5.70178L19.2485 5.50301C19.3005 5.39897 19.4069 5.33325 19.5232 5.33325H21C21.1841 5.33325 21.3334 5.48249 21.3334 5.66659C21.3334 5.85068 21.1841 5.99992 21 5.99992H20.3334C20.1493 5.99992 20 6.14916 20 6.33325C20 6.51735 20.1493 6.66659 20.3334 6.66659H21C21.1841 6.66659 21.3334 6.81582 21.3334 6.99992V8.99992C21.3334 9.18401 21.1841 9.33325 21 9.33325H20.3334C20.1493 9.33325 20 9.18401 20 8.99992V8.33325C20 8.14916 20.1493 7.99992 20.3334 7.99992C20.5175 7.99992 20.6667 7.85068 20.6667 7.66659C20.6667 7.48249 20.5175 7.33325 20.3334 7.33325H19.6667C19.4826 7.33325 19.3334 7.48249 19.3334 7.66659V8.99992C19.3334 9.18401 19.1841 9.33325 19 9.33325C18.8159 9.33325 18.6667 9.18401 18.6667 8.99992V8.33325C18.6667 8.14916 18.5175 7.99992 18.3334 7.99992C18.1493 7.99992 18 8.14916 18 8.33325V8.99992C18 9.18401 17.8508 9.33325 17.6667 9.33325C17.4826 9.33325 17.3334 9.18401 17.3334 8.99992V8.13799Z" fill="white"/>
<path fill-rule="evenodd" clip-rule="evenodd" d="M16 6.33013C16 6.51595 15.8958 6.77075 15.7593 6.90727L15.574 7.09257C15.4411 7.22549 15.4375 7.43742 15.574 7.57393L15.7593 7.75924C15.8922 7.89216 16 8.14261 16 8.33637V8.9968C16 9.18262 15.8573 9.33325 15.6635 9.33325H15.0031C14.8173 9.33325 14.6667 9.19056 14.6667 8.9968V8.33637C14.6667 8.15056 14.6051 8.12297 14.512 8.30916L14.1546 9.02401C14.0692 9.1948 13.8431 9.33325 13.6697 9.33325H12.3303C12.1479 9.33325 12 9.17863 12 8.99992C12 8.81582 12.1427 8.66659 12.3365 8.66659H12.9969C13.1827 8.66659 13.3333 8.51196 13.3333 8.33325C13.3333 8.14916 13.1906 7.99992 12.9969 7.99992H12.3365C12.1506 7.99992 12 7.85655 12 7.67293V5.66024C12 5.47965 12.1427 5.33325 12.3365 5.33325H12.9969C13.1827 5.33325 13.3333 5.47594 13.3333 5.66971V6.33013C13.3333 6.51595 13.1787 6.66659 13 6.66659C12.8159 6.66659 12.6667 6.82121 12.6667 6.99992C12.6667 7.18401 12.8094 7.33325 13.0031 7.33325H13.6635C13.8494 7.33325 14 7.17632 14 7.00299V5.66351C14 5.48111 14.1546 5.33325 14.3333 5.33325C14.5174 5.33325 14.6667 5.47594 14.6667 5.66971V6.33013C14.6667 6.51595 14.8213 6.66659 15 6.66659C15.1841 6.66659 15.3333 6.5239 15.3333 6.33013V5.66971C15.3333 5.48389 15.488 5.33325 15.6667 5.33325C15.8508 5.33325 16 5.47594 16 5.66971V6.33013Z" fill="white"/>
</g>
</svg>
