<svg width="28" height="20" viewBox="0 0 28 20" fill="none" xmlns="http://www.w3.org/2000/svg">
<rect x="0.25" y="0.25" width="27.5" height="19.5" rx="1.75" fill="white" stroke="#F5F5F5" stroke-width="0.5"/>
<mask id="mask0_18_1410" style="mask-type:alpha" maskUnits="userSpaceOnUse" x="0" y="0" width="28" height="20">
<rect x="0.25" y="0.25" width="27.5" height="19.5" rx="1.75" fill="white" stroke="white" stroke-width="0.5"/>
</mask>
<g mask="url(#mask0_18_1410)">
<path fill-rule="evenodd" clip-rule="evenodd" d="M0 20.0002H28V9.3335H0V20.0002Z" fill="#7CCCF5"/>
<path d="M12 9.3335C12 8.96531 11.7016 8.66683 11.3334 8.66683C10.9652 8.66683 10.6667 8.96531 10.6667 9.3335H12ZM12.3291 12.2183C12.6475 12.4031 13.0555 12.2947 13.2403 11.9762C13.4251 11.6578 13.3167 11.2498 12.9982 11.065L12.3291 12.2183ZM15.0757 11.02C14.7655 11.2184 14.6749 11.6306 14.8733 11.9408C15.0716 12.251 15.4839 12.3416 15.7941 12.1433L15.0757 11.02ZM17.3334 9.3335C17.3334 8.96531 17.0349 8.66683 16.6667 8.66683C16.2985 8.66683 16 8.96531 16 9.3335H17.3334ZM10.6667 9.3335C10.6667 10.5666 11.3366 11.6424 12.3291 12.2183L12.9982 11.065C12.4 10.7179 12 10.072 12 9.3335H10.6667ZM15.7941 12.1433C16.7183 11.5521 17.3334 10.5149 17.3334 9.3335H16C16 10.0412 15.633 10.6636 15.0757 11.02L15.7941 12.1433Z" fill="#445F42"/>
<path fill-rule="evenodd" clip-rule="evenodd" d="M14 10.6665C14.7363 10.6665 15.3333 9.77107 15.3333 8.6665C15.3333 7.56193 14.7363 6.6665 14 6.6665C13.2636 6.6665 12.6666 7.56193 12.6666 8.6665C12.6666 9.77107 13.2636 10.6665 14 10.6665Z" fill="#D89F3D"/>
</g>
</svg>
