<svg width="28" height="20" viewBox="0 0 28 20" fill="none" xmlns="http://www.w3.org/2000/svg">
<rect width="28" height="20" rx="2" fill="white"/>
<mask id="mask0_18_699" style="mask-type:alpha" maskUnits="userSpaceOnUse" x="0" y="0" width="28" height="20">
<rect width="28" height="20" rx="2" fill="white"/>
</mask>
<g mask="url(#mask0_18_699)">
<rect width="28" height="20" fill="#E31F37"/>
<path fill-rule="evenodd" clip-rule="evenodd" d="M-1.33337 10.6667H14.6666V-1.33325H-1.33337V10.6667Z" fill="#083B9A"/>
<path fill-rule="evenodd" clip-rule="evenodd" d="M6.66673 2.6666L5.72392 2.94275L6.00006 1.99994L5.72392 1.05713L6.66673 1.33327L7.60954 1.05713L7.33339 1.99994L7.60954 2.94275L6.66673 2.6666ZM6.66673 9.33327L5.72392 9.60941L6.00006 8.6666L5.72392 7.7238L6.66673 7.99994L7.60954 7.7238L7.33339 8.6666L7.60954 9.60941L6.66673 9.33327ZM3.05725 6.27608L4.00006 5.99994L4.94287 6.27608L4.66673 5.33327L4.94287 4.39046L4.00006 4.6666L3.05725 4.39046L3.33339 5.33327L3.05725 6.27608ZM10.0001 5.33327L9.05725 5.60941L9.33339 4.6666L9.05725 3.7238L10.0001 3.99994L10.9429 3.7238L10.6667 4.6666L10.9429 5.60941L10.0001 5.33327ZM8.66673 6.99994C8.66673 7.18403 8.51749 7.33327 8.33339 7.33327C8.1493 7.33327 8.00006 7.18403 8.00006 6.99994C8.00006 6.81584 8.1493 6.6666 8.33339 6.6666C8.51749 6.6666 8.66673 6.81584 8.66673 6.99994Z" fill="white"/>
</g>
</svg>
