<svg width="18" height="18" viewBox="0 0 18 18" fill="none" xmlns="http://www.w3.org/2000/svg">
<g clip-path="url(#clip0_542_9315)">
<path d="M12 5.25H8.25C7.05653 5.25 5.91193 5.72411 5.06802 6.56802C4.22411 7.41193 3.75 8.55653 3.75 9.75C3.75 10.9435 4.22411 12.0881 5.06802 12.932C5.91193 13.7759 7.05653 14.25 8.25 14.25H15V15.75H8.25C6.6587 15.75 5.13258 15.1179 4.00736 13.9926C2.88214 12.8674 2.25 11.3413 2.25 9.75C2.25 8.1587 2.88214 6.63258 4.00736 5.50736C5.13258 4.38214 6.6587 3.75 8.25 3.75H12V0.75L16.5 4.5L12 8.25V5.25Z" fill="black"/>
</g>
<defs>
<clipPath id="clip0_542_9315">
<rect width="18" height="18" fill="white"/>
</clipPath>
</defs>
</svg>
