<svg width="18" height="18" viewBox="0 0 18 18" fill="none" xmlns="http://www.w3.org/2000/svg">
<g clip-path="url(#clip0_540_7926)">
<path d="M15 16.5H3C2.80109 16.5 2.61032 16.421 2.46967 16.2803C2.32902 16.1397 2.25 15.9489 2.25 15.75V2.25C2.25 2.05109 2.32902 1.86032 2.46967 1.71967C2.61032 1.57902 2.80109 1.5 3 1.5H15C15.1989 1.5 15.3897 1.57902 15.5303 1.71967C15.671 1.86032 15.75 2.05109 15.75 2.25V15.75C15.75 15.9489 15.671 16.1397 15.5303 16.2803C15.3897 16.421 15.1989 16.5 15 16.5ZM5.25 4.5V7.5H8.25V4.5H5.25ZM5.25 9V10.5H12.75V9H5.25ZM5.25 12V13.5H12.75V12H5.25ZM9.75 5.25V6.75H12.75V5.25H9.75Z" fill="black"/>
</g>
<defs>
<clipPath id="clip0_540_7926">
<rect width="18" height="18" fill="white"/>
</clipPath>
</defs>
</svg>
