<svg width="18" height="18" viewBox="0 0 18 18" fill="none" xmlns="http://www.w3.org/2000/svg">
<g clip-path="url(#clip0_540_7898)">
<path d="M12 12C13.2427 12 14.25 13.0073 14.25 14.25C14.25 15.4927 13.2427 16.5 12 16.5C10.7573 16.5 9.75 15.4927 9.75 14.25C9.75 13.0073 10.7573 12 12 12ZM4.5 9C6.1575 9 7.5 10.3425 7.5 12C7.5 13.6575 6.1575 15 4.5 15C2.8425 15 1.5 13.6575 1.5 12C1.5 10.3425 2.8425 9 4.5 9ZM12 13.5C11.586 13.5 11.25 13.836 11.25 14.25C11.25 14.664 11.586 15 12 15C12.414 15 12.75 14.664 12.75 14.25C12.75 13.836 12.414 13.5 12 13.5ZM4.5 10.5C3.67125 10.5 3 11.1712 3 12C3 12.8288 3.67125 13.5 4.5 13.5C5.32875 13.5 6 12.8288 6 12C6 11.1712 5.32875 10.5 4.5 10.5ZM10.875 1.5C13.1535 1.5 15 3.3465 15 5.625C15 7.9035 13.1535 9.75 10.875 9.75C8.5965 9.75 6.75 7.9035 6.75 5.625C6.75 3.3465 8.5965 1.5 10.875 1.5ZM10.875 3C9.42525 3 8.25 4.17525 8.25 5.625C8.25 7.07475 9.42525 8.25 10.875 8.25C12.3247 8.25 13.5 7.07475 13.5 5.625C13.5 4.17525 12.3247 3 10.875 3Z" fill="black"/>
</g>
<defs>
<clipPath id="clip0_540_7898">
<rect width="18" height="18" fill="white"/>
</clipPath>
</defs>
</svg>
