<svg width="18" height="18" viewBox="0 0 18 18" fill="none" xmlns="http://www.w3.org/2000/svg">
<g clip-path="url(#clip0_540_7902)">
<path d="M12 12C13.2427 12 14.25 13.0073 14.25 14.25C14.25 15.4927 13.2427 16.5 12 16.5C10.7573 16.5 9.75 15.4927 9.75 14.25C9.75 13.0073 10.7573 12 12 12ZM4.5 9C6.1575 9 7.5 10.3425 7.5 12C7.5 13.6575 6.1575 15 4.5 15C2.8425 15 1.5 13.6575 1.5 12C1.5 10.3425 2.8425 9 4.5 9ZM10.875 1.5C13.1535 1.5 15 3.3465 15 5.625C15 7.9035 13.1535 9.75 10.875 9.75C8.5965 9.75 6.75 7.9035 6.75 5.625C6.75 3.3465 8.5965 1.5 10.875 1.5Z" fill="black"/>
</g>
<defs>
<clipPath id="clip0_540_7902">
<rect width="18" height="18" fill="white"/>
</clipPath>
</defs>
</svg>
