<svg width="18" height="18" viewBox="0 0 18 18" fill="none" xmlns="http://www.w3.org/2000/svg">
<g clip-path="url(#clip0_540_7942)">
<path d="M9 1.5C9.19891 1.5 9.38968 1.57902 9.53033 1.71967C9.67098 1.86032 9.75 2.05109 9.75 2.25V4.5C9.75 4.69891 9.67098 4.88968 9.53033 5.03033C9.38968 5.17098 9.19891 5.25 9 5.25C8.80109 5.25 8.61032 5.17098 8.46967 5.03033C8.32902 4.88968 8.25 4.69891 8.25 4.5V2.25C8.25 2.05109 8.32902 1.86032 8.46967 1.71967C8.61032 1.57902 8.80109 1.5 9 1.5V1.5ZM9 12.75C9.19891 12.75 9.38968 12.829 9.53033 12.9697C9.67098 13.1103 9.75 13.3011 9.75 13.5V15.75C9.75 15.9489 9.67098 16.1397 9.53033 16.2803C9.38968 16.421 9.19891 16.5 9 16.5C8.80109 16.5 8.61032 16.421 8.46967 16.2803C8.32902 16.1397 8.25 15.9489 8.25 15.75V13.5C8.25 13.3011 8.32902 13.1103 8.46967 12.9697C8.61032 12.829 8.80109 12.75 9 12.75V12.75ZM16.5 9C16.5 9.19891 16.421 9.38968 16.2803 9.53033C16.1397 9.67098 15.9489 9.75 15.75 9.75H13.5C13.3011 9.75 13.1103 9.67098 12.9697 9.53033C12.829 9.38968 12.75 9.19891 12.75 9C12.75 8.80109 12.829 8.61032 12.9697 8.46967C13.1103 8.32902 13.3011 8.25 13.5 8.25H15.75C15.9489 8.25 16.1397 8.32902 16.2803 8.46967C16.421 8.61032 16.5 8.80109 16.5 9ZM5.25 9C5.25 9.19891 5.17098 9.38968 5.03033 9.53033C4.88968 9.67098 4.69891 9.75 4.5 9.75H2.25C2.05109 9.75 1.86032 9.67098 1.71967 9.53033C1.57902 9.38968 1.5 9.19891 1.5 9C1.5 8.80109 1.57902 8.61032 1.71967 8.46967C1.86032 8.32902 2.05109 8.25 2.25 8.25H4.5C4.69891 8.25 4.88968 8.32902 5.03033 8.46967C5.17098 8.61032 5.25 8.80109 5.25 9ZM14.3032 14.3032C14.1626 14.4439 13.9719 14.5228 13.773 14.5228C13.5741 14.5228 13.3834 14.4439 13.2427 14.3032L11.652 12.7125C11.5154 12.571 11.4398 12.3816 11.4415 12.1849C11.4432 11.9883 11.5221 11.8002 11.6611 11.6611C11.8002 11.5221 11.9883 11.4432 12.1849 11.4415C12.3816 11.4398 12.571 11.5154 12.7125 11.652L14.3032 13.242C14.373 13.3117 14.4283 13.3944 14.466 13.4854C14.5038 13.5765 14.5232 13.6741 14.5232 13.7726C14.5232 13.8712 14.5038 13.9688 14.466 14.0598C14.4283 14.1509 14.373 14.2336 14.3032 14.3032V14.3032ZM6.348 6.348C6.20735 6.4886 6.01662 6.56759 5.81775 6.56759C5.61888 6.56759 5.42815 6.4886 5.2875 6.348L3.6975 4.758C3.55677 4.61737 3.47767 4.42659 3.4776 4.22764C3.47753 4.02869 3.55649 3.83786 3.69713 3.69713C3.83776 3.55639 4.02853 3.47729 4.22748 3.47722C4.42644 3.47715 4.61727 3.55612 4.758 3.69675L6.348 5.2875C6.4886 5.42815 6.56759 5.61888 6.56759 5.81775C6.56759 6.01662 6.4886 6.20735 6.348 6.348V6.348ZM3.6975 14.3032C3.5569 14.1626 3.47791 13.9719 3.47791 13.773C3.47791 13.5741 3.5569 13.3834 3.6975 13.2427L5.28825 11.652C5.35744 11.5804 5.44019 11.5232 5.5317 11.4839C5.6232 11.4446 5.72161 11.4239 5.8212 11.4231C5.92078 11.4222 6.01954 11.4412 6.11172 11.4789C6.20389 11.5166 6.28763 11.5723 6.35805 11.6427C6.42847 11.7131 6.48416 11.7969 6.52187 11.889C6.55958 11.9812 6.57855 12.08 6.57769 12.1796C6.57682 12.2791 6.55613 12.3776 6.51683 12.4691C6.47752 12.5606 6.42038 12.6433 6.34875 12.7125L4.75875 14.3032C4.6891 14.373 4.60638 14.4283 4.51533 14.466C4.42428 14.5038 4.32669 14.5232 4.22812 14.5232C4.12956 14.5232 4.03197 14.5038 3.94092 14.466C3.84987 14.4283 3.76715 14.373 3.6975 14.3032V14.3032ZM11.652 6.348C11.5114 6.20735 11.4324 6.01662 11.4324 5.81775C11.4324 5.61888 11.5114 5.42815 11.652 5.2875L13.242 3.69675C13.3826 3.55602 13.5734 3.47692 13.7724 3.47685C13.9713 3.47678 14.1621 3.55574 14.3029 3.69638C14.4436 3.83701 14.5227 4.02778 14.5228 4.22673C14.5228 4.42569 14.4439 4.61652 14.3032 4.75725L12.7125 6.348C12.5719 6.4886 12.3811 6.56759 12.1823 6.56759C11.9834 6.56759 11.7926 6.4886 11.652 6.348V6.348Z" fill="black"/>
</g>
<defs>
<clipPath id="clip0_540_7942">
<rect width="18" height="18" fill="white"/>
</clipPath>
</defs>
</svg>
