<svg width="18" height="18" viewBox="0 0 18 18" fill="none" xmlns="http://www.w3.org/2000/svg">
<g clip-path="url(#clip0_543_7578)">
<path d="M4.587 15.0652C3.63002 14.3699 2.85136 13.4577 2.31479 12.4035C1.77822 11.3493 1.499 10.1829 1.5 9C1.5 4.85775 4.85775 1.5 9 1.5C13.1423 1.5 16.5 4.85775 16.5 9C16.501 10.1829 16.2218 11.3493 15.6852 12.4035C15.1486 13.4577 14.37 14.3699 13.413 15.0652L12.6518 13.761C13.6465 12.9979 14.3773 11.9424 14.7414 10.7427C15.1055 9.54298 15.0847 8.25935 14.6817 7.0721C14.2788 5.88486 13.5142 4.85365 12.4951 4.12332C11.476 3.393 10.2538 3.00025 9 3.00025C7.74625 3.00025 6.524 3.393 5.50493 4.12332C4.48585 4.85365 3.72116 5.88486 3.31826 7.0721C2.91535 8.25935 2.89449 9.54298 3.25859 10.7427C3.62268 11.9424 4.35346 12.9979 5.34825 13.761L4.587 15.0652V15.0652ZM6.1125 12.4515C5.40377 11.8586 4.89476 11.0618 4.65462 10.1695C4.41448 9.27723 4.45485 8.33263 4.77026 7.46408C5.08567 6.59552 5.66082 5.84512 6.41756 5.31483C7.1743 4.78454 8.07595 4.50007 9 4.50007C9.92405 4.50007 10.8257 4.78454 11.5824 5.31483C12.3392 5.84512 12.9143 6.59552 13.2297 7.46408C13.5452 8.33263 13.5855 9.27723 13.3454 10.1695C13.1052 11.0618 12.5962 11.8586 11.8875 12.4515L11.115 11.127C11.5363 10.7082 11.8238 10.1736 11.941 9.59121C12.0582 9.00878 11.9999 8.40467 11.7733 7.85545C11.5468 7.30623 11.1623 6.83664 10.6686 6.50621C10.1748 6.17578 9.59411 5.99938 9 5.99938C8.4059 5.99938 7.82517 6.17578 7.33144 6.50621C6.8377 6.83664 6.4532 7.30623 6.22666 7.85545C6.00012 8.40467 5.94176 9.00878 6.05896 9.59121C6.17616 10.1736 6.46366 10.7082 6.885 11.127L6.1125 12.4515V12.4515ZM8.25 9.75H9.75L10.5 16.5H7.5L8.25 9.75Z" fill="black"/>
</g>
<defs>
<clipPath id="clip0_543_7578">
<rect width="18" height="18" fill="white"/>
</clipPath>
</defs>
</svg>
